<svg height="290.092pt" viewBox="0 0 505.789 290.092" width="505.789pt" xmlns="http://www.w3.org/2000/svg" xmlns:xlink="http://www.w3.org/1999/xlink"><defs><g id="a"><path d="m4.90625-2.578125v-4.203125c0-1.0625.078125-2.234375.078125-2.234375 0-.234375-.1875-.359375-.484375-.359375-.59375.234375-2.296875.390625-3.765625.59375-.03125.125 0 .546875.046875.671875 1.15625.109375 1.375.265625 1.375 1.46875v4.0625c0 1.75-.234375 1.796875-1.515625 1.90625-.140625.125-.140625.59375 0 .71875.875-.03125 1.765625-.046875 2.890625-.046875 1.109375 0 1.984375.015625 2.890625.046875.125-.125.125-.59375 0-.71875-1.28125-.09375-1.515625-.15625-1.515625-1.90625zm-2.859375-10.015625c0 .703125.515625 1.390625 1.359375 1.390625.953125 0 1.5-.75 1.5-1.296875 0-.640625-.484375-1.40625-1.375-1.40625-1 0-1.484375.6875-1.484375 1.3125zm0 0"/></g><g id="b"><path d="m1.015625-3.078125c.078125 1.03125.1875 2.015625.359375 2.828125.40625.125 1.75.46875 2.9375.46875 1.625 0 3.65625-.890625 3.65625-2.734375 0-.71875-.171875-1.28125-.65625-1.8125-.59375-.671875-1.484375-1.203125-2.453125-1.625-.84375-.359375-1.140625-1.046875-1.140625-1.65625 0-.484375.40625-.890625 1.015625-.890625.734375 0 1.453125.6875 1.984375 1.96875.375.0625.609375.046875.828125-.109375 0-.75-.09375-1.5625-.28125-2.234375-.671875-.296875-1.203125-.5-2.359375-.5-1.125 0-2.1875.421875-2.859375 1.09375-.484375.484375-.71875 1.078125-.71875 1.640625 0 .640625.25 1.140625.65625 1.59375.65625.71875 1.8125 1.453125 2.453125 1.75.84375.375 1.078125 1.140625 1.078125 1.65625 0 .671875-.671875 1.03125-1.25 1.03125-.953125 0-1.96875-.96875-2.40625-2.515625-.34375-.0625-.5-.046875-.84375.046875zm0 0"/></g><g id="c"><path d="m2-6.53125v8.859375c0 1.75-.21875 1.796875-1.515625 1.890625-.125.140625-.125.59375 0 .71875.890625-.015625 1.78125-.03125 2.890625-.03125 1.125 0 1.984375.015625 2.90625.03125.125-.125.125-.578125 0-.71875-1.296875-.078125-1.53125-.140625-1.53125-1.890625v-2.46875c.46875.21875.90625.359375 1.421875.359375 3.203125 0 5.296875-2.125 5.296875-5.21875 0-1.1875-.4375-2.5-1.265625-3.328125-.734375-.734375-1.796875-1.046875-2.890625-1.046875-.609375 0-1.75.734375-2.5 1.40625h-.125c-.046875-.59375-.109375-1.046875-.109375-1.046875-.015625-.265625-.1875-.359375-.484375-.359375-.78125.203125-2.046875.5-3.5.6875-.046875.125 0 .546875.046875.6875 1.15625.09375 1.359375.265625 1.359375 1.46875zm2.75 5.15625v-5.40625c0-.125 0-.234375 0-.359375.609375-.546875 1.390625-.828125 1.890625-.828125.859375 0 1.875 1.0625 1.875 3.53125 0 1.78125-.640625 3.765625-2.46875 3.765625-.234375 0-.765625-.125-1.296875-.703125zm0 0"/></g><g id="d"><path d="m1.328125-9.171875c-.296875 0-.609375.09375-.890625.328125v.609375c0 .09375.03125.125.109375.125h1.375c-.046875 2.125-.0625 4.828125-.0625 5.890625 0 .734375.1875 1.453125.640625 1.84375.484375.390625 1.234375.59375 1.75.59375 1.15625 0 2.453125-.59375 2.875-1.1875 0-.25-.125-.390625-.390625-.59375-.265625.203125-.796875.296875-1.203125.296875-.46875 0-.921875-.359375-.921875-1.421875 0-1.046875-.03125-3.3125-.03125-5.421875h2.140625c.203125 0 .5-.09375.5-.28125v-.65625c0-.078125-.0625-.125-.15625-.125h-2.484375l.03125-.71875c.03125-1.40625.09375-2.390625.09375-2.390625 0-.125-.0625-.1875-.15625-.1875-.15625 0-.9375.234375-1.265625.390625-.359375.140625-.984375.265625-1.125.453125-.15625.203125-.234375.765625-.234375 2.453125zm0 0"/></g><g id="e"><path d="m3.9375-5.40625c.65625.046875.65625.28125.46875.765625l-1.390625 3.515625h-.03125l-1.40625-3.578125c-.203125-.515625-.15625-.640625.4375-.703125.0625-.046875.0625-.234375 0-.28125-.34375 0-.734375.015625-1.0625.015625-.3125 0-.625-.015625-.90625-.015625-.0625.046875-.046875.234375 0 .28125.484375.046875.5625.203125.796875.8125l1.734375 4.5c.046875.140625.109375.203125.203125.203125s.15625-.078125.203125-.203125l1.828125-4.484375c.171875-.421875.3125-.765625.859375-.828125.0625-.046875.0625-.234375 0-.28125-.265625 0-.5625.015625-.765625.015625s-.609375-.015625-.96875-.015625c-.046875.046875-.046875.234375 0 .28125zm0 0"/></g><g id="f"><path d="m3.390625-.8125c-.328125.328125-.578125.46875-1.078125.46875-.328125 0-.6875-.1875-.96875-.625-.171875-.296875-.28125-.703125-.28125-1.21875l2.34375.03125c.109375 0 .171875-.0625.171875-.15625 0-.734375-.265625-1.53125-1.5-1.53125-.765625 0-1.75.734375-1.75 2.0625 0 .5.125.96875.40625 1.3125.296875.34375.71875.5625 1.34375.5625.671875 0 1.15625-.3125 1.5-.765625-.03125-.09375-.078125-.140625-.1875-.140625zm-2.296875-1.671875c.171875-.984375.78125-1.0625.984375-1.0625.34375 0 .734375.171875.734375.921875 0 .078125-.03125.125-.125.125zm0 0"/></g><g id="g"><path d="m1.546875-3.15625c-.015625-.34375-.03125-.578125-.0625-.65625-.03125-.046875-.046875-.078125-.109375-.078125-.25.09375-.484375.171875-1.078125.25-.03125.0625 0 .203125.015625.25.46875.046875.5625.09375.5625.609375v1.703125c0 .734375-.09375.765625-.640625.8125-.0625.046875-.0625.234375 0 .28125.296875 0 .640625-.015625 1-.015625.34375 0 .75.015625 1.0625.015625.046875-.046875.046875-.234375 0-.28125-.609375-.046875-.71875-.078125-.71875-.8125v-1.21875c0-.234375.109375-.4375.203125-.59375.09375-.140625.296875-.421875.40625-.421875.078125 0 .15625.015625.234375.109375.0625.09375.171875.203125.3125.203125.21875 0 .421875-.21875.421875-.4375 0-.171875-.171875-.421875-.53125-.421875-.421875 0-.78125.390625-.984375.734375-.046875.09375-.09375.015625-.09375-.03125zm0 0"/></g><g id="h"><path d="m1.796875 1.40625c.140625-.25.25-.484375.359375-.75.703125-1.703125 1.09375-2.609375 1.5625-3.59375.171875-.375.296875-.515625.703125-.5625.0625-.046875.0625-.234375 0-.296875-.171875.015625-.375.015625-.625.015625-.265625 0-.53125 0-.796875-.015625-.046875.0625-.046875.25 0 .296875.28125.03125.5625.078125.421875.390625l-.875 2.015625c-.0625.140625-.140625.171875-.203125 0l-.78125-1.828125c-.15625-.375-.203125-.546875.28125-.578125.0625-.046875.0625-.234375 0-.296875-.328125.015625-.671875.015625-.984375.015625s-.546875 0-.71875-.015625c-.046875.0625-.046875.25 0 .296875.359375.046875.46875.125.6875.65625l1 2.3125c.078125.171875.21875.578125.125.828125-.109375.296875-.21875.53125-.34375.8125-.09375.171875-.21875.25-.4375.25-.125 0-.15625-.015625-.25-.015625-.265625 0-.390625.25-.390625.375 0 .1875.171875.328125.40625.328125.1875 0 .546875-.078125.859375-.640625zm0 0"/></g><g id="i"><path d="m1.3125 0h1.875c.234375 0 1.046875.015625 1.046875.015625.078125-.4375.171875-1.015625.21875-1.46875-.078125-.046875-.171875-.0625-.28125-.046875-.171875.640625-.5 1.15625-1.4375 1.15625h-.546875c-.34375 0-.5-.171875-.5-.609375v-3.640625c0-.734375.140625-.78125.765625-.8125.046875-.046875.046875-.234375 0-.28125-.40625 0-.8125.015625-1.15625.015625-.3125 0-.71875-.015625-1.125-.015625-.0625.046875-.0625.234375 0 .28125.609375.03125.765625.078125.765625.8125v3.515625c0 .734375-.15625.78125-.765625.8125-.0625.046875-.0625.234375 0 .28125.34375 0 .84375-.015625 1.140625-.015625zm0 0"/></g><g id="j"><path d="m.359375-1.796875c0 .890625.59375 1.890625 1.84375 1.890625.5625 0 1-.203125 1.296875-.5.390625-.390625.578125-.9375.578125-1.46875 0-.921875-.5-1.984375-1.859375-1.984375-.578125 0-1.046875.234375-1.375.609375-.3125.375-.484375.890625-.484375 1.453125zm1.734375-1.75c.75 0 1.21875.671875 1.21875 1.953125 0 1.09375-.5625 1.375-.984375 1.375-.90625 0-1.203125-1.109375-1.203125-1.78125 0-.765625.171875-1.546875.96875-1.546875zm0 0"/></g><g id="k"><path d="m1.78125-3.5c.0625-.046875.0625-.234375 0-.296875-.265625.015625-.5625.015625-.890625.015625s-.5625 0-.796875-.015625c-.046875.0625-.046875.25 0 .296875.421875.046875.515625.125.703125.59375l1.140625 2.828125c.0625.125.125.1875.21875.1875.078125 0 .15625-.0625.203125-.203125l.890625-2.15625.90625 2.171875c.0625.125.125.1875.21875.1875.078125 0 .140625-.0625.203125-.1875l1.15625-2.796875c.140625-.359375.28125-.59375.734375-.625.046875-.046875.046875-.234375 0-.296875-.171875.015625-.375.015625-.640625.015625s-.625 0-.890625-.015625c-.0625.0625-.0625.25 0 .296875.65625.03125.5625.296875.453125.59375l-.75 1.828125c-.078125.21875-.125.21875-.1875.046875l-.765625-1.9375c-.15625-.40625-.140625-.5.328125-.53125.046875-.046875.046875-.234375 0-.296875-.265625.015625-.625.015625-.890625.015625-.21875 0-.5 0-.765625-.015625-.046875.0625-.046875.25 0 .296875.40625.03125.515625.296875.671875.6875l.0625.140625-.625 1.546875c-.109375.296875-.125.3125-.25.03125l-.703125-1.8125c-.15625-.421875-.15625-.5625.265625-.59375zm0 0"/></g><g id="l"><path d="m5.828125-1.015625c.046875.703125.015625.71875-.5625.75-.046875.046875-.046875.234375 0 .28125.328125 0 .6875-.015625.9375-.015625.265625 0 .671875.015625.96875.015625.046875-.046875.046875-.234375 0-.28125-.59375-.03125-.625-.0625-.6875-.796875l-.25-3.703125c-.046875-.484375 0-.59375.59375-.640625.0625-.046875.0625-.234375 0-.28125l-1.140625.015625-1.875 4.453125c-.03125.09375-.0625.125-.078125.125s-.046875-.046875-.0625-.109375l-1.8125-4.46875-1.265625-.015625c-.0625.046875-.0625.234375 0 .28125.609375.046875.65625.0625.59375.71875l-.359375 3.625c-.046875.53125-.15625.75-.65625.796875-.046875.046875-.046875.234375 0 .28125.265625 0 .546875-.015625.765625-.015625.203125 0 .5625.015625.828125.015625.046875-.046875.046875-.234375 0-.28125-.59375-.046875-.625-.328125-.59375-.8125l.34375-3.53125h.015625l1.828125 4.5625c.015625.0625.078125.140625.125.140625s.09375-.0625.125-.140625l1.984375-4.65625h.015625zm0 0"/></g><g id="m"><path d="m2.9375-.4375c.046875-.03125.125-.0625.125 0 .03125.21875.109375.53125.109375.53125.0625.015625.109375.015625.15625 0 .203125-.171875.5-.296875 1.046875-.359375.046875-.046875.046875-.1875 0-.234375-.5625-.046875-.640625-.21875-.640625-.640625v-3.984375c0-.578125.03125-.921875.03125-.921875 0-.0625-.03125-.09375-.109375-.09375-.21875.09375-.890625.21875-1.234375.234375-.015625.078125 0 .21875.046875.265625h.078125c.390625.03125.484375.03125.484375.71875v1.125c0 .0625-.015625.078125-.078125.078125-.03125 0-.390625-.140625-.6875-.140625-.578125 0-.96875.1875-1.3125.53125-.375.375-.609375.890625-.609375 1.546875 0 1.078125.546875 1.875 1.5 1.875.34375 0 .65625-.1875 1.09375-.53125zm.09375-.65625c0 .171875-.015625.234375-.140625.34375-.328125.28125-.609375.421875-.828125.421875-.46875 0-.96875-.515625-.96875-1.609375 0-.640625.125-.984375.265625-1.171875.265625-.421875.640625-.4375.8125-.4375.3125 0 .53125.109375.71875.3125.125.140625.140625.203125.140625.46875zm0 0"/></g><g id="n"><path d="m1.59375-1.078125v-1.75c0-.4375.03125-1 .03125-1 0-.03125-.046875-.0625-.109375-.0625-.25.09375-.59375.171875-1.203125.25-.015625.0625 0 .203125.015625.25.484375.046875.5625.09375.5625.609375v1.703125c0 .734375-.09375.765625-.625.8125-.046875.046875-.046875.234375 0 .28125.28125 0 .625-.015625.984375-.015625.34375 0 .6875.015625.96875.015625.0625-.046875.0625-.234375 0-.28125-.53125-.046875-.625-.078125-.625-.8125zm-.796875-4.1875c0 .21875.203125.453125.421875.453125.234375 0 .453125-.234375.453125-.421875 0-.203125-.1875-.453125-.421875-.453125-.21875 0-.453125.203125-.453125.421875zm0 0"/></g><g id="o"><path d="m1.90625.09375c.34375 0 .765625-.1875 1.1875-.53125.046875-.03125.125-.0625.140625 0 .015625.21875.09375.53125.09375.53125.0625.015625.109375.015625.171875 0 .1875-.171875.5-.296875 1.03125-.359375.046875-.046875.046875-.1875 0-.234375-.5625-.046875-.640625-.21875-.640625-.640625v-1.6875c0-.265625.03125-.90625.03125-.90625 0-.03125-.03125-.0625-.0625-.0625-.046875.015625-.1875.015625-.3125.015625-.28125 0-.59375 0-.90625-.015625-.046875.0625-.046875.25 0 .296875.4375.03125.546875.125.546875.71875v1.6875c0 .171875-.015625.234375-.140625.34375-.3125.28125-.65625.421875-.875.421875-.265625 0-.703125-.125-.703125-.90625v-1.59375c0-.265625.03125-.90625.03125-.90625 0-.03125-.015625-.0625-.0625-.0625-.046875.015625-.171875.015625-.3125.015625-.28125 0-.59375 0-.890625-.015625-.0625.0625-.0625.25 0 .296875.421875.03125.546875.125.546875.703125v1.6875c0 .609375.25 1.203125 1.125 1.203125zm0 0"/></g><g id="p"><path d="m1.5-3.15625c-.015625-.25-.03125-.578125-.078125-.65625-.015625-.046875-.03125-.078125-.109375-.078125-.234375.09375-.46875.171875-1.078125.25-.015625.0625 0 .203125.015625.25.484375.046875.578125.09375.578125.609375v1.703125c0 .71875-.109375.765625-.59375.8125-.0625.046875-.0625.234375 0 .28125.265625 0 .59375-.015625.9375-.015625.359375 0 .625.015625.890625.015625.0625-.046875.0625-.234375 0-.28125-.4375-.046875-.546875-.09375-.546875-.8125v-1.4375c0-.1875.078125-.296875.15625-.375.34375-.34375.671875-.515625.953125-.515625.328125 0 .578125.21875.578125.796875v1.53125c0 .71875-.078125.765625-.546875.8125-.046875.046875-.046875.234375 0 .28125.21875 0 .546875-.015625.890625-.015625.359375 0 .65625.015625.875.015625.03125-.046875.03125-.234375 0-.28125-.453125-.046875-.53125-.09375-.53125-.8125v-1.390625c0-.125 0-.25 0-.359375.421875-.46875.8125-.578125 1.15625-.578125s.53125.203125.53125.78125v1.546875c0 .71875-.09375.765625-.546875.8125-.046875.046875-.046875.234375 0 .28125.21875 0 .546875-.015625.890625-.015625.359375 0 .671875.015625.90625.015625.046875-.046875.046875-.234375 0-.28125-.484375-.046875-.5625-.09375-.5625-.8125v-1.390625c0-.78125-.125-1.390625-.90625-1.390625-.4375 0-.984375.171875-1.4375.65625-.03125.015625-.09375.0625-.109375-.015625-.078125-.359375-.421875-.640625-.875-.640625-.515625 0-.96875.296875-1.34375.703125-.03125.046875-.09375.109375-.09375 0zm0 0"/></g><g id="q"><path d="m5.4375-1.078125v-3.515625c0-.734375.15625-.78125.765625-.8125.046875-.046875.046875-.234375 0-.28125-.359375 0-.8125.015625-1.140625.015625s-.75-.015625-1.140625-.015625c-.046875.046875-.046875.234375 0 .28125.625.03125.765625.078125.765625.8125v1.40625h-3v-1.40625c0-.734375.140625-.78125.765625-.8125.046875-.046875.046875-.234375 0-.28125-.34375 0-.703125.015625-1.15625.015625-.4375 0-.796875-.015625-1.125-.015625-.0625.046875-.0625.234375 0 .28125.609375.03125.765625.078125.765625.8125v3.515625c0 .734375-.15625.78125-.765625.8125-.0625.046875-.0625.234375 0 .28125.375 0 .796875-.015625 1.140625-.015625.3125 0 .75.015625 1.140625.015625.046875-.046875.046875-.234375 0-.28125-.625-.03125-.765625-.078125-.765625-.8125v-1.75h3v1.75c0 .734375-.140625.78125-.765625.8125-.046875.046875-.046875.234375 0 .28125.390625 0 .8125-.015625 1.140625-.015625s.75.015625 1.140625.015625c.046875-.046875.046875-.234375 0-.28125-.609375-.03125-.765625-.078125-.765625-.8125zm0 0"/></g><g id="r"><path d="m3.90625-3.40625c.171875 0 .328125-.15625.328125-.328125 0-.1875-.171875-.328125-.40625-.328125s-.65625.140625-.875.453125c-.109375-.078125-.40625-.25-.921875-.25-.78125 0-1.5.53125-1.5 1.328125 0 .484375.203125.75.453125.984375-.25.21875-.390625.59375-.390625.890625 0 .328125.1875.5625.40625.6875-.46875.28125-.71875.6875-.71875 1.0625 0 .765625.71875 1 1.40625 1 1.1875 0 2.46875-.578125 2.46875-1.515625 0-.28125-.140625-.5-.390625-.71875-.34375-.28125-.953125-.296875-1.28125-.296875-.15625 0-.375.03125-.59375.046875-.125.015625-.21875.015625-.265625.015625-.25 0-.5625-.125-.5625-.5 0-.171875.0625-.359375.15625-.5.21875.109375.46875.171875.796875.171875.78125 0 1.5-.484375 1.5-1.34375 0-.40625-.125-.640625-.390625-.90625.0625-.09375.25-.21875.359375-.21875.0625 0 .125.03125.171875.109375.03125.0625.15625.15625.25.15625zm-2.75 3.5c.109375.015625.25.03125.359375.03125.265625 0 .515625-.015625.640625-.015625.4375 0 .8125 0 1.0625.140625.34375.203125.453125.328125.453125.546875 0 .640625-.9375.96875-1.734375.96875-.3125 0-1.046875-.25-1.046875-.84375 0-.3125.015625-.53125.265625-.828125zm1.65625-2.546875c0 .8125-.421875.984375-.75.984375-.734375 0-.8125-.625-.8125-1.1875 0-.609375.21875-.9375.703125-.9375.546875 0 .859375.40625.859375 1.140625zm0 0"/></g><g id="s"><path d="m1.46875-2.515625c0-.1875.078125-.296875.15625-.375.328125-.3125.78125-.515625 1.125-.515625.171875 0 .359375.109375.453125.3125.09375.1875.109375.421875.109375.6875v1.328125c0 .71875-.078125.765625-.546875.8125-.03125.046875-.03125.234375 0 .28125.25 0 .546875-.015625.90625-.015625.34375 0 .640625.015625.921875.015625.046875-.046875.046875-.234375 0-.28125-.484375-.046875-.578125-.09375-.578125-.8125v-1.3125c0-.484375-.046875-.90625-.234375-1.171875-.15625-.1875-.421875-.296875-.734375-.296875-.4375 0-.96875.109375-1.5.703125 0 .015625 0 .015625-.015625.03125-.03125.03125-.078125.078125-.078125-.03125l.015625-1.96875c0-.578125.03125-.921875.03125-.921875 0-.0625-.03125-.09375-.109375-.09375-.21875.09375-.875.21875-1.234375.234375-.015625.078125 0 .21875.0625.265625h.078125c.375.03125.484375.03125.484375.71875v3.84375c0 .734375-.109375.765625-.625.8125-.046875.046875-.046875.234375 0 .28125.296875 0 .625-.015625.96875-.015625.328125 0 .625.015625.875.015625.046875-.046875.046875-.234375 0-.28125-.453125-.046875-.53125-.078125-.53125-.8125zm0 0"/></g><g id="t"><path d="m-4.15625-1.765625c.0625.0625.03125.109375-.0625.109375h-1.9375c-.6875 0-1.109375-.046875-1.109375-.046875-.078125 0-.109375.046875-.109375.140625.109375.265625.25 1.0625.28125 1.484375.09375.015625.265625 0 .328125-.0625 0-.03125 0-.078125 0-.109375.03125-.453125.03125-.578125.859375-.578125h5.15625c.40625 0 .609375.015625.75.046875.078125-.046875.125-.109375.125-.234375-.0625-.0625-.15625-.171875-.25-.25-.125-.109375-.125-.171875-.03125-.28125.203125-.25.265625-.5625.265625-.9375 0-1.078125-.984375-2.328125-2.671875-2.328125-1.28125 0-2.078125.953125-2.078125 1.859375 0 .453125.1875.859375.484375 1.1875zm.328125-.078125c-.25-.265625-.34375-.578125-.34375-.890625 0-.640625.78125-1.171875 1.8125-1.171875 1.203125 0 2.109375.484375 2.109375 1.484375 0 .328125-.234375.546875-.5.765625h-2.640625c-.21875 0-.328125-.046875-.4375-.1875zm0 0"/></g><g id="u"><path d="m-1.28125-1.90625h-2.109375c-.53125 0-1.203125-.046875-1.203125-.046875-.046875 0-.078125.046875-.078125.140625.125.296875.21875.71875.3125 1.4375.0625.03125.234375 0 .296875-.015625.046875-.578125.109375-.6875.71875-.6875h2.0625c.875 0 .90625.109375.953125.765625.0625.0625.28125.0625.34375 0 0-.359375-.015625-.765625-.015625-1.1875s.015625-.828125.015625-1.171875c-.0625-.0625-.28125-.0625-.34375 0-.046875.640625-.078125.765625-.953125.765625zm-5.046875.953125c.28125 0 .546875-.25.546875-.5 0-.296875-.28125-.546875-.5-.546875-.25 0-.546875.21875-.546875.5 0 .25.25.546875.5.546875zm0 0"/></g><g id="v"><path d="m4.15625 1.765625c-.0625-.0625-.03125-.109375.0625-.109375h1.9375c.6875 0 1.109375.046875 1.109375.046875.078125 0 .109375-.046875.109375-.140625-.109375-.265625-.25-1.0625-.28125-1.484375-.09375-.015625-.265625 0-.328125.0625v.109375c-.03125.453125-.03125.578125-.859375.578125h-5.15625c-.40625 0-.609375-.015625-.75-.046875-.078125.046875-.125.109375-.125.234375.0625.0625.15625.171875.25.25.125.109375.125.171875.03125.28125-.203125.25-.265625.5625-.265625.9375 0 1.078125.984375 2.328125 2.671875 2.328125 1.28125 0 2.078125-.953125 2.078125-1.859375 0-.453125-.1875-.859375-.484375-1.1875zm-.328125.078125c.25.265625.34375.578125.34375.890625 0 .640625-.78125 1.171875-1.8125 1.171875-1.203125 0-2.109375-.484375-2.109375-1.484375 0-.328125.234375-.546875.5-.765625h2.640625c.21875 0 .328125.046875.4375.1875zm0 0"/></g><g id="w"><path d="m1.28125 1.90625h2.109375c.53125 0 1.203125.046875 1.203125.046875.046875 0 .078125-.046875.078125-.140625-.125-.296875-.21875-.71875-.3125-1.4375-.0625-.03125-.234375 0-.296875.015625-.046875.578125-.109375.6875-.71875.6875h-2.0625c-.875 0-.90625-.109375-.953125-.765625-.0625-.0625-.28125-.0625-.34375 0 0 .359375.015625.765625.015625 1.1875s-.015625.828125-.015625 1.171875c.0625.0625.28125.0625.34375 0 .046875-.640625.078125-.765625.953125-.765625zm5.046875-.953125c-.28125 0-.546875.25-.546875.5 0 .296875.28125.546875.5.546875.25 0 .546875-.21875.546875-.5 0-.25-.25-.546875-.5-.546875zm0 0"/></g><g id="x"><path d="m4.078125-.984375c-.390625.40625-.703125.578125-1.3125.578125-.375 0-.828125-.234375-1.15625-.765625-.203125-.34375-.328125-.828125-.328125-1.453125l2.8125.03125c.125 0 .1875-.0625.1875-.1875 0-.890625-.3125-1.828125-1.78125-1.828125-.921875 0-2.109375.875-2.109375 2.46875 0 .59375.140625 1.171875.5 1.5625.359375.4375.859375.6875 1.609375.6875.8125 0 1.375-.375 1.796875-.921875-.03125-.109375-.09375-.15625-.21875-.171875zm-2.765625-2c.203125-1.1875.9375-1.28125 1.1875-1.28125.40625 0 .875.21875.875 1.109375 0 .09375-.03125.140625-.15625.140625zm0 0"/></g><g id="y"><path d="m3.09375-.5c.0625.328125.1875.609375.703125.609375.40625 0 .78125-.1875 1.015625-.390625-.03125-.125-.0625-.21875-.1875-.296875-.078125.078125-.25.171875-.390625.171875-.3125 0-.3125-.40625-.3125-.890625v-1.5625c0-1.5-.828125-1.78125-1.59375-1.78125-.875 0-1.75.578125-1.75 1.171875 0 .25.125.390625.375.390625.296875 0 .5-.234375.5-.359375 0-.078125-.015625-.15625-.03125-.203125-.015625-.03125-.03125-.09375-.03125-.203125 0-.328125.453125-.4375.84375-.4375.359375 0 .859375.171875.859375 1.359375 0 .078125-.03125.125-.0625.140625l-.90625.21875c-1.015625.25-1.75.8125-1.75 1.53125 0 .859375.59375 1.140625 1.34375 1.140625.359375 0 .671875-.09375 1.140625-.453125l.21875-.15625zm0-1.96875v1.40625c0 .140625-.0625.203125-.140625.265625-.28125.21875-.640625.46875-.9375.46875-.53125 0-.765625-.421875-.765625-.75 0-.46875.234375-.953125 1.015625-1.15625zm0 0"/></g><g id="z"><path d="m.453125-4.53125c-.140625 0-.1875.125-.1875.21875v.125c0 .0625.015625.0625.046875.0625h.625v3.1875c0 .75.328125 1.046875.8125 1.046875s1.015625-.234375 1.421875-.703125c-.015625-.109375-.078125-.171875-.1875-.171875-.265625.203125-.59375.296875-.859375.296875-.28125 0-.34375-.328125-.34375-.984375v-2.671875h1.09375c.109375 0 .25-.03125.25-.125v-.21875c0-.046875-.03125-.0625-.078125-.0625h-1.265625v-.40625c0-.6875.03125-1.109375.03125-1.109375 0-.0625-.03125-.09375-.078125-.09375s-.140625.03125-.234375.09375c-.109375.0625-.21875.109375-.359375.140625-.125.046875-.234375.078125-.234375.15625 0 .125.03125.046875.03125 1.21875zm0 0"/></g><g id="A"><path d="m1.90625-1.28125v-2.109375c0-.53125.046875-1.203125.046875-1.203125 0-.046875-.046875-.078125-.140625-.078125-.296875.125-.71875.21875-1.4375.3125-.03125.0625 0 .234375.015625.296875.578125.046875.6875.109375.6875.71875v2.0625c0 .875-.109375.90625-.765625.953125-.0625.0625-.0625.28125 0 .34375.359375 0 .765625-.015625 1.1875-.015625s.828125.015625 1.171875.015625c.0625-.0625.0625-.28125 0-.34375-.640625-.046875-.765625-.078125-.765625-.953125zm-.953125-5.046875c0 .28125.25.546875.5.546875.296875 0 .546875-.28125.546875-.5 0-.25-.21875-.546875-.5-.546875-.25 0-.546875.25-.546875.5zm0 0"/></g><g id="B"><path d="m3.4375-4.203125c.5625.046875.625.171875.40625.703125l-.859375 2.078125c-.171875.40625-.21875.40625-.390625-.03125l-.75-2.046875c-.203125-.5-.234375-.625.328125-.703125.0625-.0625.0625-.28125 0-.34375-.359375 0-.71875.015625-1.078125.015625-.34375 0-.65625-.015625-.984375-.015625-.0625.0625-.0625.28125 0 .34375.5625.0625.640625.234375.859375.765625l1.34375 3.34375c.0625.15625.125.21875.265625.21875.109375 0 .171875-.0625.25-.234375l1.40625-3.3125c.203125-.46875.3125-.734375.90625-.78125.0625-.0625.0625-.28125 0-.34375-.203125 0-.46875.015625-.734375.015625-.34375 0-.703125-.015625-.96875-.015625-.0625.0625-.0625.28125 0 .34375zm0 0"/></g><g id="C"><path d="m2.015625-1.28125v-4.25c0-.875.1875-.921875.921875-.953125.0625-.0625.0625-.28125 0-.34375-.46875 0-.96875.015625-1.375.015625-.34375 0-.859375-.015625-1.359375-.015625-.0625.0625-.0625.28125 0 .34375.734375.03125.921875.078125.921875.953125v4.25c0 .875-.1875.921875-.921875.953125-.0625.0625-.0625.28125 0 .34375.46875 0 .984375-.015625 1.375-.015625.375 0 .890625.015625 1.359375.015625.0625-.0625.0625-.28125 0-.34375-.734375-.03125-.921875-.078125-.921875-.953125zm0 0"/></g><g id="D"><path d="m1.796875-3.78125c-.015625-.3125-.03125-.703125-.078125-.796875-.03125-.0625-.046875-.09375-.140625-.09375-.296875.125-.5625.21875-1.296875.3125-.015625.0625 0 .234375.03125.296875.5625.046875.6875.109375.6875.71875v2.0625c0 .859375-.140625.90625-.71875.953125-.0625.0625-.0625.28125 0 .34375.3125 0 .71875-.015625 1.140625-.015625s.75.015625 1.0625.015625c.0625-.0625.0625-.28125 0-.34375-.546875-.046875-.65625-.09375-.65625-.953125v-1.734375c0-.234375.09375-.359375.171875-.453125.421875-.40625.8125-.625 1.140625-.625.40625 0 .703125.265625.703125.96875v1.84375c0 .859375-.078125.90625-.65625.953125-.046875.0625-.046875.28125 0 .34375.265625 0 .65625-.015625 1.078125-.015625s.765625.015625 1.03125.015625c.0625-.0625.0625-.28125 0-.34375-.515625-.046875-.625-.09375-.625-.953125v-1.6875c0-.140625 0-.296875 0-.421875.5-.5625.984375-.703125 1.390625-.703125s.640625.234375.640625.953125v1.859375c0 .859375-.109375.90625-.65625.953125-.0625.0625-.0625.28125 0 .34375.265625 0 .65625-.015625 1.078125-.015625s.78125.015625 1.078125.015625c.0625-.0625.0625-.28125 0-.34375-.578125-.046875-.671875-.09375-.671875-.953125v-1.671875c0-.9375-.15625-1.6875-1.09375-1.6875-.53125 0-1.1875.203125-1.734375.78125-.03125.03125-.09375.09375-.125 0-.09375-.4375-.5-.78125-1.046875-.78125-.609375 0-1.171875.359375-1.609375.859375-.046875.046875-.109375.125-.125 0zm0 0"/></g><g id="E"><path d="m1.640625-3.890625c0-.3125-.03125-.59375-.078125-.6875-.015625-.0625-.046875-.09375-.125-.09375-.296875.125-.578125.21875-1.296875.3125-.03125.0625 0 .234375.015625.296875.578125.046875.6875.109375.6875.71875v4.5c0 .875-.109375.9375-.765625.96875-.0625.0625-.0625.28125 0 .34375.375 0 .765625-.015625 1.1875-.015625s.9375.015625 1.28125.015625c.0625-.0625.0625-.28125 0-.34375-.75-.046875-.875-.09375-.875-.96875v-1.140625c0-.125.046875-.125.15625-.078125.265625.109375.578125.171875.921875.171875.59375 0 1.109375-.1875 1.546875-.59375.5-.484375.78125-1.140625.78125-2 0-1.125-.796875-2.15625-1.859375-2.15625-.5 0-1.03125.328125-1.453125.796875-.0625.0625-.109375.0625-.125-.046875zm.203125.390625c.28125-.328125.765625-.65625 1.078125-.65625.671875 0 1.25.765625 1.25 1.953125 0 .875-.3125 1.953125-1.484375 1.953125-.1875 0-.5625-.0625-.75-.21875-.21875-.203125-.265625-.265625-.265625-.640625v-1.921875c0-.21875.046875-.3125.171875-.46875zm0 0"/></g><g id="F"><path d="m4.203125-.96875c-.046875-.09375-.125-.125-.21875-.140625-.359375.46875-.8125.703125-1.265625.703125-.78125 0-1.421875-.78125-1.421875-2.015625 0-1.171875.515625-1.859375 1.203125-1.859375.625 0 .71875.359375.75.734375.03125.28125.1875.375.40625.375s.515625-.140625.515625-.46875c0-.578125-.609375-1-1.609375-1-1.046875 0-2.171875.9375-2.171875 2.4375 0 1.375.765625 2.3125 2.09375 2.3125.625 0 1.1875-.203125 1.71875-1.078125zm0 0"/></g><g id="G"><path d="m2.3125-1.1875.828125-2.15625c.078125-.203125.15625-.265625.515625-.265625h3.15625l.875 2.53125c.171875.515625-.390625.5625-1.109375.609375-.09375.09375-.09375.40625 0 .5.546875-.015625 1.375-.03125 1.953125-.03125.625 0 1.1875.015625 1.71875.03125.078125-.09375.078125-.40625 0-.5-.59375-.046875-1.09375-.09375-1.359375-.8125l-3.078125-8.5625c-.21875.140625-.625.296875-.8125.296875l-3.40625 8.015625c-.375.9375-.828125 1.015625-1.484375 1.0625-.09375.09375-.09375.40625 0 .5.390625-.015625.875-.03125 1.328125-.03125.609375 0 1.359375.015625 1.90625.03125.09375-.09375.09375-.40625 0-.5-.5625-.046875-1.265625-.09375-1.03125-.71875zm1.625-3.046875c-.328125 0-.4375-.046875-.375-.1875l1.515625-3.875h.09375l1.40625 4.0625zm0 0"/></g><g id="H"><path d="m2.625-5.359375c-.015625-.59375-.03125-.984375-.109375-1.125-.03125-.078125-.0625-.125-.1875-.125-.421875.171875-.796875.296875-1.828125.4375-.03125.09375 0 .328125.015625.421875.8125.0625.984375.140625.984375 1.015625v2.90625c0 1.25-.1875 1.3125-1.109375 1.359375-.09375.09375-.09375.40625 0 .5.515625-.015625 1.109375-.03125 1.703125-.03125s1.28125.015625 1.8125.03125c.09375-.09375.09375-.40625 0-.5-1.046875-.0625-1.234375-.109375-1.234375-1.359375v-2.078125c0-.390625.1875-.734375.359375-1 .171875-.234375.515625-.734375.6875-.734375.140625 0 .28125.03125.390625.203125.109375.140625.28125.34375.546875.34375.359375 0 .703125-.375.703125-.75 0-.28125-.28125-.71875-.90625-.71875-.703125 0-1.3125.65625-1.65625 1.234375-.09375.171875-.171875.046875-.171875-.03125zm0 0"/></g><g id="I"><path d="m.609375-3.0625c0 1.515625 1.015625 3.21875 3.140625 3.21875.953125 0 1.6875-.34375 2.203125-.84375.671875-.65625.96875-1.59375.96875-2.515625 0-1.546875-.84375-3.359375-3.140625-3.359375-.984375 0-1.796875.40625-2.34375 1.046875s-.828125 1.515625-.828125 2.453125zm2.953125-2.984375c1.28125 0 2.078125 1.171875 2.078125 3.328125 0 1.875-.96875 2.34375-1.671875 2.34375-1.5625 0-2.0625-1.890625-2.0625-3.03125 0-1.296875.3125-2.640625 1.65625-2.640625zm0 0"/></g><g id="J"><path d="m.640625-6.421875c-.203125 0-.265625.1875-.265625.3125v.1875c0 .078125.015625.09375.078125.09375h.875v4.5c0 1.0625.46875 1.484375 1.15625 1.484375s1.4375-.328125 2.015625-1c-.03125-.140625-.125-.234375-.265625-.25-.390625.296875-.84375.421875-1.234375.421875s-.484375-.453125-.484375-1.375v-3.78125h1.546875c.15625 0 .359375-.0625.359375-.203125v-.296875c0-.0625-.046875-.09375-.109375-.09375h-1.796875v-.578125c0-.96875.0625-1.5625.0625-1.5625 0-.09375-.046875-.140625-.125-.140625-.0625 0-.1875.0625-.328125.140625-.171875.078125-.3125.15625-.515625.203125-.171875.0625-.328125.109375-.328125.203125 0 .1875.046875.078125.046875 1.734375zm0 0"/></g><g id="K"><path d="m2.75-5.359375c-.09375.109375-.171875.140625-.171875 0-.015625-.390625-.046875-.984375-.125-1.125-.03125-.078125-.0625-.125-.1875-.125-.40625.171875-.796875.296875-1.828125.4375-.03125.09375 0 .328125.03125.421875.796875.0625.96875.140625.96875 1.015625v2.90625c0 1.234375-.15625 1.296875-1.046875 1.359375-.09375.09375-.09375.40625 0 .5.453125-.015625 1.046875-.03125 1.640625-.03125s1.046875.015625 1.5.03125c.09375-.09375.09375-.40625 0-.5-.765625-.0625-.921875-.125-.921875-1.359375v-2.453125c0-.3125.140625-.484375.265625-.625.5625-.546875 1.234375-.875 1.8125-.875.3125 0 .625.1875.796875.53125.15625.296875.1875.703125.1875 1.15625v2.265625c0 1.234375-.15625 1.296875-.9375 1.359375-.0625.09375-.0625.40625 0 .5.453125-.015625.9375-.03125 1.53125-.03125s1.140625.015625 1.578125.03125c.078125-.09375.078125-.40625 0-.5-.828125-.0625-1-.125-1-1.359375v-2.21875c0-.828125-.0625-1.546875-.40625-2.015625-.25-.328125-.703125-.5-1.234375-.5-.734375 0-1.5625.1875-2.453125 1.203125zm0 0"/></g></defs><g stroke="#000" transform="translate(11.3386 11.3386)"><path d="m57.302025 25.794213v36.851562h36.851563v-36.851562zm0 0" fill="#ffed80"/><path d="m388.958275 25.794213v36.851562h36.851563v-36.851562zm0 0" fill="#ffed80"/><path d="m94.153588 25.794213v36.851562h36.851562v-36.851562zm0 0" fill="#ffed80"/><path d="m352.106713 25.794213v36.851562h36.851562v-36.851562zm0 0" fill="#ffed80"/><path d="m131.00515 25.794213v36.851562h36.851563v-36.851562zm0 0" fill="#ffa09a"/><path d="m315.25515 25.794213v36.851562h36.851563v-36.851562zm0 0" fill="#ffa09a"/><path d="m167.856713 25.794213v36.851562h36.847656v-36.851562zm0 0" fill="#ffa09a"/><path d="m278.407494 25.794213v36.851562h36.847656v-36.851562zm0 0" fill="#ffa09a"/><path d="m204.704369 25.794213v36.851562h36.851562v-36.851562zm0 0" fill="#ffa09a"/><path d="m241.555931 25.794213v36.851562h36.851563v-36.851562zm0 0" fill="#ffa09a"/><path d="m57.302025 62.645775v36.851563h36.851563v-36.851563zm0 0" fill="#7dcc86"/><path d="m388.958275 62.645775v36.851563h36.851563v-36.851563zm0 0" fill="#7dcc86"/><path d="m94.153588 62.645775v36.851563h36.851562v-36.851563zm0 0" fill="#ffed80"/><path d="m352.106713 62.645775v36.851563h36.851562v-36.851563zm0 0" fill="#ffed80"/><path d="m131.00515 62.645775v36.851563h36.851563v-36.851563zm0 0" fill="#ffed80"/><path d="m315.25515 62.645775v36.851563h36.851563v-36.851563zm0 0" fill="#ffed80"/><path d="m167.856713 62.645775v36.851563h36.847656v-36.851563zm0 0" fill="#ffa09a"/><path d="m278.407494 62.645775v36.851563h36.847656v-36.851563zm0 0" fill="#ffa09a"/><path d="m204.704369 62.645775v36.851563h36.851562v-36.851563zm0 0" fill="#ffa09a"/><path d="m241.555931 62.645775v36.851563h36.851563v-36.851563zm0 0" fill="#ffa09a"/><path d="m57.302025 99.497338v36.847656h36.851563v-36.847656zm0 0" fill="#7dcc86"/><path d="m388.958275 99.497338v36.847656h36.851563v-36.847656zm0 0" fill="#7dcc86"/><path d="m94.153588 99.497338v36.847656h36.851562v-36.847656zm0 0" fill="#7dcc86"/><path d="m352.106713 99.497338v36.847656h36.851562v-36.847656zm0 0" fill="#7dcc86"/><path d="m131.00515 99.497338v36.847656h36.851563v-36.847656zm0 0" fill="#ffed80"/><path d="m315.25515 99.497338v36.847656h36.851563v-36.847656zm0 0" fill="#ffed80"/><path d="m167.856713 99.497338v36.847656h36.847656v-36.847656zm0 0" fill="#ffa09a"/><path d="m278.407494 99.497338v36.847656h36.847656v-36.847656zm0 0" fill="#ffa09a"/><path d="m204.704369 99.497338v36.847656h36.851562v-36.847656zm0 0" fill="#ffa09a"/><path d="m241.555931 99.497338v36.847656h36.851563v-36.847656zm0 0" fill="#ffa09a"/><path d="m57.302025 136.344994v36.851562h36.851563v-36.851562zm0 0" fill="#7dcc86"/><path d="m388.958275 136.344994v36.851562h36.851563v-36.851562zm0 0" fill="#7dcc86"/><path d="m94.153588 136.344994v36.851562h36.851562v-36.851562zm0 0" fill="#7dcc86"/><path d="m352.106713 136.344994v36.851562h36.851562v-36.851562zm0 0" fill="#7dcc86"/><path d="m131.00515 136.344994v36.851562h36.851563v-36.851562zm0 0" fill="#ffed80"/><path d="m315.25515 136.344994v36.851562h36.851563v-36.851562zm0 0" fill="#ffed80"/><path d="m167.856713 136.344994v36.851562h36.847656v-36.851562zm0 0" fill="#ffed80"/><path d="m278.407494 136.344994v36.851562h36.847656v-36.851562zm0 0" fill="#ffed80"/><path d="m204.704369 136.344994v36.851562h36.851562v-36.851562zm0 0" fill="#ffa09a"/><path d="m241.555931 136.344994v36.851562h36.851563v-36.851562zm0 0" fill="#ffa09a"/><path d="m57.302025 173.196556v36.851563h36.851563v-36.851563zm0 0" fill="#7dcc86"/><path d="m388.958275 173.196556v36.851563h36.851563v-36.851563zm0 0" fill="#7dcc86"/><path d="m94.153588 173.196556v36.851563h36.851562v-36.851563zm0 0" fill="#7dcc86"/><path d="m352.106713 173.196556v36.851563h36.851562v-36.851563zm0 0" fill="#7dcc86"/><path d="m131.00515 173.196556v36.851563h36.851563v-36.851563zm0 0" fill="#7dcc86"/><path d="m315.25515 173.196556v36.851563h36.851563v-36.851563zm0 0" fill="#7dcc86"/><path d="m167.856713 173.196556v36.851563h36.847656v-36.851563zm0 0" fill="#7dcc86"/><path d="m278.407494 173.196556v36.851563h36.847656v-36.851563zm0 0" fill="#7dcc86"/><path d="m204.704369 173.196556v36.851563h36.851562v-36.851563zm0 0" fill="#ffed80"/><path d="m241.555931 173.196556v36.851563h36.851563v-36.851563zm0 0" fill="#ffed80"/></g><g><path d="m7.640625-13.8125c-.84375 0-6.140625.140625-6.984375.140625-.21875.125-.21875.59375 0 .71875 1.15625.0625 1.75.15625 1.75 1.90625v8.46875c0 1.75-.59375 1.84375-1.75 1.90625-.21875.125-.21875.59375 0 .71875.84375-.03125 2.40625-.046875 3.25-.046875s2.375.015625 3.21875.046875c.203125-.125.203125-.59375 0-.71875-1.171875-.0625-1.765625-.15625-1.765625-1.90625v-3.40625c1.671875 0 1.859375.15625 2.15625.640625l2.46875 3.671875c.65625.953125 1.53125 1.890625 2.796875 1.890625.84375 0 1.9375-.078125 2.15625-.171875.078125-.15625.0625-.546875-.015625-.71875-.953125 0-1.4375-.515625-2.03125-1.390625l-2.875-4.4375c1.140625-.46875 2.78125-1.5625 2.78125-3.71875 0-.84375-.3125-2.125-1.625-2.90625-.78125-.453125-1.9375-.6875-3.53125-.6875zm1.96875 3.953125c0 2.59375-1.5625 3-3.328125 3h-.921875v-4.203125c0-1.4375.5-1.890625 1.609375-1.890625 1.234375 0 2.640625.515625 2.640625 3.09375zm0 0" transform="translate(115.8906 172.9216)"/><use x="131.01252" xlink:href="#a" y="172.9216"/><use x="137.81316" xlink:href="#b" y="172.9216"/><path d="m2.109375-2.6875c0 1.765625-.328125 1.953125-1.625 2.015625-.125.125-.125.59375 0 .71875.890625-.03125 1.84375-.046875 3-.046875.9375 0 1.859375.015625 2.375.046875.125-.125.125-.59375 0-.71875-.640625-.09375-1-.25-1-2.015625v-1.734375c.59375 0 1.25.0625 1.453125.40625.484375.71875 1.078125 1.59375 1.4375 2.375.28125.578125.34375.78125.34375 1.09375v.546875l.046875.046875s.9375-.046875 1.6875-.046875c.859375 0 2.046875.015625 2.828125.046875.125-.125.125-.59375 0-.71875-.828125-.09375-1.296875-.03125-1.921875-.96875l-2.453125-3.625c-.109375-.140625-.140625-.3125-.0625-.421875l1.0625-1.15625c.671875-.734375 1.234375-1.484375 2.84375-1.65625.125-.125.125-.578125 0-.703125-.46875.015625-1.796875.03125-2.34375.03125-.78125 0-1.78125-.015625-2.5625-.03125-.125.125-.125.578125 0 .703125 1.140625.09375 1.484375.28125.875 1.125-.46875.640625-.9375 1.140625-1.359375 1.515625-.265625.234375-1.234375.59375-1.875.59375v-7.046875c0-1.375.0625-2.15625.0625-2.15625 0-.1875-.140625-.28125-.34375-.28125-.78125.265625-2.46875.484375-3.96875.546875-.0625.265625-.03125.5.0625.6875 1.328125.09375 1.4375.125 1.4375 1.578125zm0 0" transform="translate(146.8314 172.9216)"/><use x="159.77796" xlink:href="#b" y="172.9216"/></g><path d="m7.64065-.084225c-.84375 0-6.140625.140625-6.984375.140625-.21875.125-.21875.59375 0 .71875 1.15625.0625 1.75.15625 1.75 1.90625v8.46875c0 1.75-.59375 1.84375-1.75 1.90625-.21875.125-.21875.59375 0 .71875.84375-.03125 2.40625-.046875 3.25-.046875s2.375.015625 3.21875.046875c.203125-.125.203125-.59375 0-.71875-1.171875-.0625-1.765625-.15625-1.765625-1.90625v-3.40625c1.671875 0 1.859375.15625 2.15625.640625l2.46875 3.671875c.65625.953125 1.53125 1.890625 2.796875 1.890625.84375 0 1.9375-.078125 2.15625-.171875.078125-.15625.0625-.546875-.015625-.71875-.953125 0-1.4375-.515625-2.03125-1.390625l-2.875-4.4375c1.140625-.46875 2.78125-1.5625 2.78125-3.71875 0-.84375-.3125-2.125-1.625-2.90625-.78125-.453125-1.9375-.6875-3.53125-.6875zm1.96875 3.953125c0 2.59375-1.5625 3-3.328125 3h-.921875v-4.203125c0-1.4375.5-1.890625 1.609375-1.890625 1.234375 0 2.640625.515625 2.640625 3.09375zm10.417969 7.28125v-4.203125c0-1.0625.078125-2.234375.078125-2.234375 0-.234375-.1875-.359375-.484375-.359375-.59375.234375-2.296875.390625-3.765625.59375-.03125.125 0 .546875.046875.671875 1.15625.109375 1.375.265625 1.375 1.46875v4.0625c0 1.75-.234375 1.796875-1.515625 1.90625-.140625.125-.140625.59375 0 .71875.875-.03125 1.765625-.046875 2.890625-.046875 1.109375 0 1.984375.015625 2.890625.046875.125-.125.125-.59375 0-.71875-1.28125-.09375-1.515625-.15625-1.515625-1.90625zm-2.859375-10.015625c0 .703125.515625 1.390625 1.359375 1.390625.953125 0 1.5-.75 1.5-1.296875 0-.640625-.484375-1.40625-1.375-1.40625-1 0-1.484375.6875-1.484375 1.3125zm5.769531 9.515625c.078125 1.03125.1875 2.015625.359375 2.828125.40625.125 1.75.46875 2.9375.46875 1.625 0 3.65625-.890625 3.65625-2.734375 0-.71875-.171875-1.28125-.65625-1.8125-.59375-.671875-1.484375-1.203125-2.453125-1.625-.84375-.359375-1.140625-1.046875-1.140625-1.65625 0-.484375.40625-.890625 1.015625-.890625.734375 0 1.453125.6875 1.984375 1.96875.375.0625.609375.046875.828125-.109375 0-.75-.09375-1.5625-.28125-2.234375-.671875-.296875-1.203125-.5-2.359375-.5-1.125 0-2.1875.421875-2.859375 1.09375-.484375.484375-.71875 1.078125-.71875 1.640625 0 .640625.25 1.140625.65625 1.59375.65625.71875 1.8125 1.453125 2.453125 1.75.84375.375 1.078125 1.140625 1.078125 1.65625 0 .671875-.671875 1.03125-1.25 1.03125-.953125 0-1.96875-.96875-2.40625-2.515625-.34375-.0625-.5-.046875-.84375.046875zm10.113281.390625c0 1.765625-.328125 1.953125-1.625 2.015625-.125.125-.125.59375 0 .71875.890625-.03125 1.84375-.046875 3-.046875.9375 0 1.859375.015625 2.375.046875.125-.125.125-.59375 0-.71875-.640625-.09375-1-.25-1-2.015625v-1.734375c.59375 0 1.25.0625 1.453125.40625.484375.71875 1.078125 1.59375 1.4375 2.375.28125.578125.34375.78125.34375 1.09375v.546875l.046875.046875s.9375-.046875 1.6875-.046875c.859375 0 2.046875.015625 2.828125.046875.125-.125.125-.59375 0-.71875-.828125-.09375-1.296875-.03125-1.921875-.96875l-2.453125-3.625c-.109375-.140625-.140625-.3125-.0625-.421875l1.0625-1.15625c.671875-.734375 1.234375-1.484375 2.84375-1.65625.125-.125.125-.578125 0-.703125-.46875.015625-1.796875.03125-2.34375.03125-.78125 0-1.78125-.015625-2.5625-.03125-.125.125-.125.578125 0 .703125 1.140625.09375 1.484375.28125.875 1.125-.46875.640625-.9375 1.140625-1.359375 1.515625-.265625.234375-1.234375.59375-1.875.59375v-7.046875c0-1.375.0625-2.15625.0625-2.15625 0-.1875-.140625-.28125-.34375-.28125-.78125.265625-2.46875.484375-3.96875.546875-.0625.265625-.03125.5.0625.6875 1.328125.09375 1.4375.125 1.4375 1.578125zm11.851563-.390625c.078125 1.03125.1875 2.015625.359375 2.828125.40625.125 1.75.46875 2.9375.46875 1.625 0 3.65625-.890625 3.65625-2.734375 0-.71875-.171875-1.28125-.65625-1.8125-.59375-.671875-1.484375-1.203125-2.453125-1.625-.84375-.359375-1.140625-1.046875-1.140625-1.65625 0-.484375.40625-.890625 1.015625-.890625.734375 0 1.453125.6875 1.984375 1.96875.375.0625.609375.046875.828125-.109375 0-.75-.09375-1.5625-.28125-2.234375-.671875-.296875-1.203125-.5-2.359375-.5-1.125 0-2.1875.421875-2.859375 1.09375-.484375.484375-.71875 1.078125-.71875 1.640625 0 .640625.25 1.140625.65625 1.59375.65625.71875 1.8125 1.453125 2.453125 1.75.84375.375 1.078125 1.140625 1.078125 1.65625 0 .671875-.671875 1.03125-1.25 1.03125-.953125 0-1.96875-.96875-2.40625-2.515625-.34375-.0625-.5-.046875-.84375.046875zm0 0" fill="none" stroke="#aaa" stroke-width=".3" transform="translate(115.8906 159.1936)"/><g><path d="m14.65625-6.953125c0-4.203125-3.125-6.953125-6.984375-6.953125-2.109375 0-3.953125.921875-5.171875 2.375-1.109375 1.3125-1.71875 3.0625-1.71875 5 0 4.1875 3.3125 6.75 6.90625 6.75 2.171875 0 3.953125-.796875 5.15625-2.09375 1.15625-1.265625 1.8125-3 1.8125-5.078125zm-7.234375-6.0625c2.25 0 4.046875 2.21875 4.046875 6.515625 0 3.5-1.21875 5.828125-3.359375 5.828125-2.328125 0-4.140625-2.3125-4.140625-6.28125 0-4.3125 1.5625-6.0625 3.453125-6.0625zm0 0" transform="translate(296.1996 172.921)"/><use x="311.6172" xlink:href="#c" y="172.921"/><use x="323.88792" xlink:href="#c" y="172.921"/></g><path d="m14.655869 9.14115c0-4.203125-3.125-6.953125-6.984375-6.953125-2.109375 0-3.953125.921875-5.171875 2.375-1.109375 1.3125-1.71875 3.0625-1.71875 5 0 4.1875 3.3125 6.75 6.90625 6.75 2.171875 0 3.953125-.796875 5.15625-2.09375 1.15625-1.265625 1.8125-3 1.8125-5.078125zm-7.234375-6.0625c2.25 0 4.046875 2.21875 4.046875 6.515625 0 3.5-1.21875 5.828125-3.359375 5.828125-2.328125 0-4.140625-2.3125-4.140625-6.28125 0-4.3125 1.5625-6.0625 3.453125-6.0625zm9.996094 6.484375v8.859375c0 1.75-.21875 1.796875-1.515625 1.890625-.125.140625-.125.59375 0 .71875.890625-.015625 1.78125-.03125 2.890625-.03125 1.125 0 1.984375.015625 2.90625.03125.125-.125.125-.578125 0-.71875-1.296875-.078125-1.53125-.140625-1.53125-1.890625v-2.46875c.46875.21875.90625.359375 1.421875.359375 3.203125 0 5.296875-2.125 5.296875-5.21875 0-1.1875-.4375-2.5-1.265625-3.328125-.734375-.734375-1.796875-1.046875-2.890625-1.046875-.609375 0-1.75.734375-2.5 1.40625h-.125c-.046875-.59375-.109375-1.046875-.109375-1.046875-.015625-.265625-.1875-.359375-.484375-.359375-.78125.203125-2.046875.5-3.5.6875-.046875.125 0 .546875.046875.6875 1.15625.09375 1.359375.265625 1.359375 1.46875zm2.75 5.15625v-5.40625c0-.125 0-.234375 0-.359375.609375-.546875 1.390625-.828125 1.890625-.828125.859375 0 1.875 1.0625 1.875 3.53125 0 1.78125-.640625 3.765625-2.46875 3.765625-.234375 0-.765625-.125-1.296875-.703125zm9.519531-5.15625v8.859375c0 1.75-.21875 1.796875-1.515625 1.890625-.125.140625-.125.59375 0 .71875.890625-.015625 1.78125-.03125 2.890625-.03125 1.125 0 1.984375.015625 2.90625.03125.125-.125.125-.578125 0-.71875-1.296875-.078125-1.53125-.140625-1.53125-1.890625v-2.46875c.46875.21875.90625.359375 1.421875.359375 3.203125 0 5.296875-2.125 5.296875-5.21875 0-1.1875-.4375-2.5-1.265625-3.328125-.734375-.734375-1.796875-1.046875-2.890625-1.046875-.609375 0-1.75.734375-2.5 1.40625h-.125c-.046875-.59375-.109375-1.046875-.109375-1.046875-.015625-.265625-.1875-.359375-.484375-.359375-.78125.203125-2.046875.5-3.5.6875-.046875.125 0 .546875.046875.6875 1.15625.09375 1.359375.265625 1.359375 1.46875zm2.75 5.15625v-5.40625c0-.125 0-.234375 0-.359375.609375-.546875 1.390625-.828125 1.890625-.828125.859375 0 1.875 1.0625 1.875 3.53125 0 1.78125-.640625 3.765625-2.46875 3.765625-.234375 0-.765625-.125-1.296875-.703125zm0 0" fill="none" stroke="#aaa" stroke-width=".3" transform="translate(296.1996 156.8276)"/><g><path d="m.78125-4.375c0 2.765625 2.203125 4.59375 5.03125 4.59375 1.5 0 2.75-.4375 3.609375-1.21875 1.078125-.9375 1.4375-2.375 1.4375-3.5625 0-2.765625-1.875-4.8125-5.03125-4.8125-1.75 0-3.0625.609375-3.890625 1.5625-.796875.921875-1.15625 2.1875-1.15625 3.4375zm4.71875-4.125c1.421875 0 2.40625 1.71875 2.40625 4.609375 0 2.53125-1 3.21875-1.765625 3.21875-1.71875 0-2.40625-2.609375-2.40625-4.171875 0-1.9375.34375-3.65625 1.765625-3.65625zm0 0" transform="translate(336.30648 172.921)"/><path d="m4.8125-5.65625c0-.765625.234375-1.078125.515625-1.40625.171875-.203125.359375-.359375.671875-.359375.1875 0 .421875.203125.59375.40625.140625.171875.5.34375.984375.34375.625 0 1.203125-.640625 1.203125-1.53125 0-.546875-.625-1.171875-1.390625-1.171875-.734375 0-1.53125.625-2.515625 2.03125h-.078125c-.046875-.640625-.15625-1.671875-.15625-1.671875-.015625-.1875-.1875-.359375-.484375-.359375-.984375.25-2.109375.546875-3.5.6875-.046875.125 0 .53125.046875.65625 1.15625.109375 1.359375.296875 1.359375 1.5v3.953125c0 1.75-.21875 1.796875-1.515625 1.90625-.125.125-.125.59375 0 .71875.890625-.03125 1.78125-.046875 2.890625-.046875 1.125 0 1.984375.015625 2.90625.046875.125-.125.125-.59375 0-.71875-1.296875-.09375-1.53125-.15625-1.53125-1.90625zm0 0" transform="translate(347.9436 172.921)"/><use x="356.98296" xlink:href="#d" y="172.921"/><path d="m10.78125-2.8125v-3.65625c0-1.765625.03125-1.515625.03125-2.03125 0-.34375-.078125-.578125-.203125-.703125-.390625.015625-.8125.03125-1.203125.03125-.59375 0-1.96875-.015625-2.796875-.03125-.125.125-.125.578125 0 .703125 1.078125.109375 1.421875.265625 1.421875 2.03125v3.90625c0 .21875 0 .421875.015625.640625-.859375.53125-1.5625.5625-1.9375.5625-.84375 0-1.484375-.09375-1.484375-1.578125v-3.53125c0-1.765625.046875-1.515625.046875-2.03125 0-.34375-.09375-.578125-.21875-.703125-.375.015625-.8125.03125-1.203125.03125-1.078125 0-1.875-.015625-2.78125-.03125-.125.125-.125.578125 0 .703125.96875.046875 1.40625.265625 1.40625 2.03125v3.296875c0 2.25.890625 3.390625 2.703125 3.390625.765625 0 2.3125-.625 3.53125-1.296875.046875.53125.09375.9375.09375.9375.015625.25.1875.359375.484375.359375.78125-.21875 2.046875-.515625 3.5-.703125.046875-.125 0-.546875-.046875-.671875-1.140625-.109375-1.359375-.453125-1.359375-1.65625zm0 0" transform="translate(364.54392 172.921)"/><path d="m4.8125-2.578125v-4.25c.84375-.5625 1.6875-.984375 2.078125-.984375.84375 0 1.46875.375 1.46875 1.578125v3.53125c0 1.78125-.328125 1.96875-1.203125 2.03125-.125.125-.125.59375 0 .71875.890625-.03125 1.5625-.046875 2.578125-.046875 1.171875 0 2.09375.015625 3 .046875.125-.125.125-.59375 0-.71875-1.28125-.0625-1.625-.25-1.625-2.03125v-3.296875c0-2.328125-.984375-3.375-2.8125-3.375-.84375 0-2.34375.921875-3.5 1.734375-.0625-.75-.15625-1.375-.15625-1.375-.015625-.265625-.1875-.359375-.484375-.359375-.78125.203125-2.046875.5-3.5.6875-.046875.125 0 .546875.046875.6875 1.15625.09375 1.359375.265625 1.359375 1.46875v3.953125c0 1.75-.21875 1.796875-1.515625 1.90625-.125.125-.125.59375 0 .71875.890625-.03125 1.78125-.046875 2.890625-.046875.984375 0 1.5625.015625 2.484375.046875.125-.125.125-.59375 0-.71875-.890625-.09375-1.109375-.15625-1.109375-1.90625zm0 0" transform="translate(377.17368 172.921)"/><use x="390.1836" xlink:href="#a" y="172.921"/><use x="396.98424" xlink:href="#d" y="172.921"/><use x="404.5452" xlink:href="#a" y="172.921"/><path d="m9.109375-2.71875c-.875.875-2.015625 1.109375-2.8125 1.109375-1.65625 0-2.65625-.953125-2.65625-3.015625 0-.15625.015625-.234375.015625-.34375h5.0625c.515625 0 .625-.359375.625-.65625 0-1.796875-.703125-3.75-3.8125-3.75-2.21875 0-4.75 1.953125-4.75 5.1875 0 1.234375.4375 2.515625 1.359375 3.34375.796875.71875 1.828125 1.0625 3.328125 1.0625 1.453125 0 2.890625-.75 3.953125-2.28125 0-.28125-.109375-.65625-.3125-.65625zm-5.375-3.09375c.03125-.734375.125-1.53125.421875-1.96875.34375-.5.90625-.71875 1.140625-.71875.578125 0 1.359375.5625 1.359375 2.25 0 .125 0 .390625-.046875.4375zm0 0" transform="translate(411.34584 172.921)"/><use x="421.67352" xlink:href="#b" y="172.921"/></g><path d="m40.886338 11.719275c0 2.765625 2.203125 4.59375 5.03125 4.59375 1.5 0 2.75-.4375 3.609375-1.21875 1.078125-.9375 1.4375-2.375 1.4375-3.5625 0-2.765625-1.875-4.8125-5.03125-4.8125-1.75 0-3.0625.609375-3.890625 1.5625-.796875.921875-1.15625 2.1875-1.15625 3.4375zm4.71875-4.125c1.421875 0 2.40625 1.71875 2.40625 4.609375 0 2.53125-1 3.21875-1.765625 3.21875-1.71875 0-2.40625-2.609375-2.40625-4.171875 0-1.9375.34375-3.65625 1.765625-3.65625zm10.953125 2.84375c0-.765625.234375-1.078125.515625-1.40625.171875-.203125.359375-.359375.671875-.359375.1875 0 .421875.203125.59375.40625.140625.171875.5.34375.984375.34375.625 0 1.203125-.640625 1.203125-1.53125 0-.546875-.625-1.171875-1.390625-1.171875-.734375 0-1.53125.625-2.515625 2.03125h-.078125c-.046875-.640625-.15625-1.671875-.15625-1.671875-.015625-.1875-.1875-.359375-.484375-.359375-.984375.25-2.109375.546875-3.5.6875-.046875.125 0 .53125.046875.65625 1.15625.109375 1.359375.296875 1.359375 1.5v3.953125c0 1.75-.21875 1.796875-1.515625 1.90625-.125.125-.125.59375 0 .71875.890625-.03125 1.78125-.046875 2.890625-.046875 1.125 0 1.984375.015625 2.90625.046875.125-.125.125-.59375 0-.71875-1.296875-.09375-1.53125-.15625-1.53125-1.90625zm5.554687-3.515625c-.296875 0-.609375.09375-.890625.328125v.609375c0 .09375.03125.125.109375.125h1.375c-.046875 2.125-.0625 4.828125-.0625 5.890625 0 .734375.1875 1.453125.640625 1.84375.484375.390625 1.234375.59375 1.75.59375 1.15625 0 2.453125-.59375 2.875-1.1875 0-.25-.125-.390625-.390625-.59375-.265625.203125-.796875.296875-1.203125.296875-.46875 0-.921875-.359375-.921875-1.421875 0-1.046875-.03125-3.3125-.03125-5.421875h2.140625c.203125 0 .5-.09375.5-.28125v-.65625c0-.078125-.0625-.125-.15625-.125h-2.484375l.03125-.71875c.03125-1.40625.09375-2.390625.09375-2.390625 0-.125-.0625-.1875-.15625-.1875-.15625 0-.9375.234375-1.265625.390625-.359375.140625-.984375.265625-1.125.453125-.15625.203125-.234375.765625-.234375 2.453125zm17.011719 6.359375v-3.65625c0-1.765625.03125-1.515625.03125-2.03125 0-.34375-.078125-.578125-.203125-.703125-.390625.015625-.8125.03125-1.203125.03125-.59375 0-1.96875-.015625-2.796875-.03125-.125.125-.125.578125 0 .703125 1.078125.109375 1.421875.265625 1.421875 2.03125v3.90625c0 .21875 0 .421875.015625.640625-.859375.53125-1.5625.5625-1.9375.5625-.84375 0-1.484375-.09375-1.484375-1.578125v-3.53125c0-1.765625.046875-1.515625.046875-2.03125 0-.34375-.09375-.578125-.21875-.703125-.375.015625-.8125.03125-1.203125.03125-1.078125 0-1.875-.015625-2.78125-.03125-.125.125-.125.578125 0 .703125.96875.046875 1.40625.265625 1.40625 2.03125v3.296875c0 2.25.890625 3.390625 2.703125 3.390625.765625 0 2.3125-.625 3.53125-1.296875.046875.53125.09375.9375.09375.9375.015625.25.1875.359375.484375.359375.78125-.21875 2.046875-.515625 3.5-.703125.046875-.125 0-.546875-.046875-.671875-1.140625-.109375-1.359375-.453125-1.359375-1.65625zm6.660156.234375v-4.25c.84375-.5625 1.6875-.984375 2.078125-.984375.84375 0 1.46875.375 1.46875 1.578125v3.53125c0 1.78125-.328125 1.96875-1.203125 2.03125-.125.125-.125.59375 0 .71875.890625-.03125 1.5625-.046875 2.578125-.046875 1.171875 0 2.09375.015625 3 .046875.125-.125.125-.59375 0-.71875-1.28125-.0625-1.625-.25-1.625-2.03125v-3.296875c0-2.328125-.984375-3.375-2.8125-3.375-.84375 0-2.34375.921875-3.5 1.734375-.0625-.75-.15625-1.375-.15625-1.375-.015625-.265625-.1875-.359375-.484375-.359375-.78125.203125-2.046875.5-3.5.6875-.046875.125 0 .546875.046875.6875 1.15625.09375 1.359375.265625 1.359375 1.46875v3.953125c0 1.75-.21875 1.796875-1.515625 1.90625-.125.125-.125.59375 0 .71875.890625-.03125 1.78125-.046875 2.890625-.046875.984375 0 1.5625.015625 2.484375.046875.125-.125.125-.59375 0-.71875-.890625-.09375-1.109375-.15625-1.109375-1.90625zm13.105469 0v-4.203125c0-1.0625.078125-2.234375.078125-2.234375 0-.234375-.1875-.359375-.484375-.359375-.59375.234375-2.296875.390625-3.765625.59375-.03125.125 0 .546875.046875.671875 1.15625.109375 1.375.265625 1.375 1.46875v4.0625c0 1.75-.234375 1.796875-1.515625 1.90625-.140625.125-.140625.59375 0 .71875.875-.03125 1.765625-.046875 2.890625-.046875 1.109375 0 1.984375.015625 2.890625.046875.125-.125.125-.59375 0-.71875-1.28125-.09375-1.515625-.15625-1.515625-1.90625zm-2.859375-10.015625c0 .703125.515625 1.390625 1.359375 1.390625.953125 0 1.5-.75 1.5-1.296875 0-.640625-.484375-1.40625-1.375-1.40625-1 0-1.484375.6875-1.484375 1.3125zm6.082031 3.421875c-.296875 0-.609375.09375-.890625.328125v.609375c0 .09375.03125.125.109375.125h1.375c-.046875 2.125-.0625 4.828125-.0625 5.890625 0 .734375.1875 1.453125.640625 1.84375.484375.390625 1.234375.59375 1.75.59375 1.15625 0 2.453125-.59375 2.875-1.1875 0-.25-.125-.390625-.390625-.59375-.265625.203125-.796875.296875-1.203125.296875-.46875 0-.921875-.359375-.921875-1.421875 0-1.046875-.03125-3.3125-.03125-5.421875h2.140625c.203125 0 .5-.09375.5-.28125v-.65625c0-.078125-.0625-.125-.15625-.125h-2.484375l.03125-.71875c.03125-1.40625.09375-2.390625.09375-2.390625 0-.125-.0625-.1875-.15625-.1875-.15625 0-.9375.234375-1.265625.390625-.359375.140625-.984375.265625-1.125.453125-.15625.203125-.234375.765625-.234375 2.453125zm11.140625 6.59375v-4.203125c0-1.0625.078125-2.234375.078125-2.234375 0-.234375-.1875-.359375-.484375-.359375-.59375.234375-2.296875.390625-3.765625.59375-.03125.125 0 .546875.046875.671875 1.15625.109375 1.375.265625 1.375 1.46875v4.0625c0 1.75-.234375 1.796875-1.515625 1.90625-.140625.125-.140625.59375 0 .71875.875-.03125 1.765625-.046875 2.890625-.046875 1.109375 0 1.984375.015625 2.890625.046875.125-.125.125-.59375 0-.71875-1.28125-.09375-1.515625-.15625-1.515625-1.90625zm-2.859375-10.015625c0 .703125.515625 1.390625 1.359375 1.390625.953125 0 1.5-.75 1.5-1.296875 0-.640625-.484375-1.40625-1.375-1.40625-1 0-1.484375.6875-1.484375 1.3125zm13.863281 9.875c-.875.875-2.015625 1.109375-2.8125 1.109375-1.65625 0-2.65625-.953125-2.65625-3.015625 0-.15625.015625-.234375.015625-.34375h5.0625c.515625 0 .625-.359375.625-.65625 0-1.796875-.703125-3.75-3.8125-3.75-2.21875 0-4.75 1.953125-4.75 5.1875 0 1.234375.4375 2.515625 1.359375 3.34375.796875.71875 1.828125 1.0625 3.328125 1.0625 1.453125 0 2.890625-.75 3.953125-2.28125 0-.28125-.109375-.65625-.3125-.65625zm-5.375-3.09375c.03125-.734375.125-1.53125.421875-1.96875.34375-.5.90625-.71875 1.140625-.71875.578125 0 1.359375.5625 1.359375 2.25 0 .125 0 .390625-.046875.4375zm7.605469 2.734375c.078125 1.03125.1875 2.015625.359375 2.828125.40625.125 1.75.46875 2.9375.46875 1.625 0 3.65625-.890625 3.65625-2.734375 0-.71875-.171875-1.28125-.65625-1.8125-.59375-.671875-1.484375-1.203125-2.453125-1.625-.84375-.359375-1.140625-1.046875-1.140625-1.65625 0-.484375.40625-.890625 1.015625-.890625.734375 0 1.453125.6875 1.984375 1.96875.375.0625.609375.046875.828125-.109375 0-.75-.09375-1.5625-.28125-2.234375-.671875-.296875-1.203125-.5-2.359375-.5-1.125 0-2.1875.421875-2.859375 1.09375-.484375.484375-.71875 1.078125-.71875 1.640625 0 .640625.25 1.140625.65625 1.59375.65625.71875 1.8125 1.453125 2.453125 1.75.84375.375 1.078125 1.140625 1.078125 1.65625 0 .671875-.671875 1.03125-1.25 1.03125-.953125 0-1.96875-.96875-2.40625-2.515625-.34375-.0625-.5-.046875-.84375.046875zm0 0" fill="none" stroke="#aaa" stroke-width=".3" transform="translate(296.1996 156.8276)"/><use x="41.7649" xlink:href="#e" y="200.1008"/><g><use x="46.7985" xlink:href="#f" y="200.1008"/><use x="50.7321" xlink:href="#g" y="200.1008"/></g><use x="54.1377" xlink:href="#h" y="200.1008"/><g><use x="42.4205" xlink:href="#i" y="211.6112"/><use x="47.0669" xlink:href="#j" y="211.6112"/></g><use x="51.4405" xlink:href="#k" y="211.6112"/><use x="447.1194" xlink:href="#e" y="200.1008"/><g><use x="452.153" xlink:href="#f" y="200.1008"/><use x="456.0866" xlink:href="#g" y="200.1008"/></g><use x="459.4922" xlink:href="#h" y="200.1008"/><g><use x="447.775" xlink:href="#i" y="211.6112"/><use x="452.4214" xlink:href="#j" y="211.6112"/></g><use x="456.795" xlink:href="#k" y="211.6112"/><use x="78.6153" xlink:href="#e" y="236.9508"/><g><use x="83.6489" xlink:href="#f" y="236.9508"/><use x="87.5825" xlink:href="#g" y="236.9508"/></g><use x="90.9881" xlink:href="#h" y="236.9508"/><g><use x="79.2709" xlink:href="#i" y="248.4612"/><use x="83.9173" xlink:href="#j" y="248.4612"/></g><use x="88.2909" xlink:href="#k" y="248.4612"/><use x="410.2684" xlink:href="#e" y="236.9508"/><g><use x="415.302" xlink:href="#f" y="236.9508"/><use x="419.2356" xlink:href="#g" y="236.9508"/></g><use x="422.6412" xlink:href="#h" y="236.9508"/><g><use x="410.924" xlink:href="#i" y="248.4612"/><use x="415.5704" xlink:href="#j" y="248.4612"/></g><use x="419.944" xlink:href="#k" y="248.4612"/><g><use x="42.4205" xlink:href="#i" y="169.005"/><use x="47.0669" xlink:href="#j" y="169.005"/></g><use x="51.4405" xlink:href="#k" y="169.005"/><g><use x="447.775" xlink:href="#i" y="169.005"/><use x="452.4214" xlink:href="#j" y="169.005"/></g><use x="456.795" xlink:href="#k" y="169.005"/><g><use x="116.1213" xlink:href="#i" y="242.706"/><use x="120.7677" xlink:href="#j" y="242.706"/></g><use x="125.1413" xlink:href="#k" y="242.706"/><g><use x="374.074" xlink:href="#i" y="242.706"/><use x="378.7204" xlink:href="#j" y="242.706"/></g><use x="383.094" xlink:href="#k" y="242.706"/><g><use x="35.2969" xlink:href="#l" y="132.1551"/><use x="42.6801" xlink:href="#f" y="132.1551"/></g><g><use x="46.6753" xlink:href="#m" y="132.1551"/><use x="51.1281" xlink:href="#n" y="132.1551"/><use x="53.5129" xlink:href="#o" y="132.1551"/><use x="58.1857" xlink:href="#p" y="132.1551"/></g><g><use x="440.6514" xlink:href="#l" y="132.1551"/><use x="448.0346" xlink:href="#f" y="132.1551"/></g><g><use x="452.0298" xlink:href="#m" y="132.1551"/><use x="456.4826" xlink:href="#n" y="132.1551"/><use x="458.8674" xlink:href="#o" y="132.1551"/><use x="463.5402" xlink:href="#p" y="132.1551"/></g><g><use x="145.8484" xlink:href="#l" y="242.706"/><use x="153.2316" xlink:href="#f" y="242.706"/></g><g><use x="157.2268" xlink:href="#m" y="242.706"/><use x="161.6796" xlink:href="#n" y="242.706"/><use x="164.0644" xlink:href="#o" y="242.706"/><use x="168.7372" xlink:href="#p" y="242.706"/></g><g><use x="330.1004" xlink:href="#l" y="242.706"/><use x="337.4836" xlink:href="#f" y="242.706"/></g><g><use x="341.4788" xlink:href="#m" y="242.706"/><use x="345.9316" xlink:href="#n" y="242.706"/><use x="348.3164" xlink:href="#o" y="242.706"/><use x="352.9892" xlink:href="#p" y="242.706"/></g><g><use x="41.2457" xlink:href="#q" y="95.3047"/><use x="47.6697" xlink:href="#n" y="95.3047"/><use x="50.0545" xlink:href="#r" y="95.3047"/><use x="54.4545" xlink:href="#s" y="95.3047"/></g><g><use x="446.6002" xlink:href="#q" y="95.3047"/><use x="453.0242" xlink:href="#n" y="95.3047"/><use x="455.409" xlink:href="#r" y="95.3047"/><use x="459.809" xlink:href="#s" y="95.3047"/></g><g><use x="188.6472" xlink:href="#q" y="242.706"/><use x="195.0712" xlink:href="#n" y="242.706"/><use x="197.456" xlink:href="#r" y="242.706"/><use x="201.856" xlink:href="#s" y="242.706"/></g><g><use x="299.1982" xlink:href="#q" y="242.706"/><use x="305.6222" xlink:href="#n" y="242.706"/><use x="308.007" xlink:href="#r" y="242.706"/><use x="312.407" xlink:href="#s" y="242.706"/></g><use x="41.7649" xlink:href="#e" y="52.6991"/><g><use x="46.7985" xlink:href="#f" y="52.6991"/><use x="50.7321" xlink:href="#g" y="52.6991"/></g><use x="54.1377" xlink:href="#h" y="52.6991"/><g><use x="41.2457" xlink:href="#q" y="64.2095"/><use x="47.6697" xlink:href="#n" y="64.2095"/><use x="50.0545" xlink:href="#r" y="64.2095"/><use x="54.4545" xlink:href="#s" y="64.2095"/></g><use x="447.1194" xlink:href="#e" y="52.6991"/><g><use x="452.153" xlink:href="#f" y="52.6991"/><use x="456.0866" xlink:href="#g" y="52.6991"/></g><use x="459.4922" xlink:href="#h" y="52.6991"/><g><use x="446.6002" xlink:href="#q" y="64.2095"/><use x="453.0242" xlink:href="#n" y="64.2095"/><use x="455.409" xlink:href="#r" y="64.2095"/><use x="459.809" xlink:href="#s" y="64.2095"/></g><use x="226.0164" xlink:href="#e" y="236.9508"/><g><use x="231.05" xlink:href="#f" y="236.9508"/><use x="234.9836" xlink:href="#g" y="236.9508"/></g><use x="238.3892" xlink:href="#h" y="236.9508"/><g><use x="225.4972" xlink:href="#q" y="248.4612"/><use x="231.9212" xlink:href="#n" y="248.4612"/><use x="234.306" xlink:href="#r" y="248.4612"/><use x="238.706" xlink:href="#s" y="248.4612"/></g><use x="262.8674" xlink:href="#e" y="236.9508"/><g><use x="267.901" xlink:href="#f" y="236.9508"/><use x="271.8346" xlink:href="#g" y="236.9508"/></g><use x="275.2402" xlink:href="#h" y="236.9508"/><g><use x="262.3482" xlink:href="#q" y="248.4612"/><use x="268.7722" xlink:href="#n" y="248.4612"/><use x="271.157" xlink:href="#r" y="248.4612"/><use x="275.557" xlink:href="#s" y="248.4612"/></g><path d="m20.454369 198.993431v-154.550781" fill="none" stroke="#aaa" transform="translate(11.3386 11.3386)"/><path d="m20.454369 38.274681-2.125 5.667969h4.25zm0 0" fill="#aaa" stroke="#aaa" transform="translate(11.3386 11.3386)"/><g><path d="m-5.53125-1.09375h4.25c.875 0 .921875.171875.953125.921875.0625.0625.28125.0625.34375 0 0-.484375-.015625-1-.015625-1.375s.015625-1 .015625-1.53125c-.0625-.0625-.28125-.0625-.34375 0-.046875.828125-.078125 1.078125-.953125 1.078125h-1.796875c.0625-.234375.09375-.484375.09375-.859375 0-1.921875-1.25-2.5-2.15625-2.5-.609375 0-1.75.421875-1.75 2.375 0 .390625.078125 1.015625.078125 1.4375 0 .390625-.015625.9375-.015625 1.375.0625.0625.28125.0625.34375 0 .03125-.75.078125-.921875.953125-.921875zm-.328125-.90625c-.296875 0-.671875-.15625-.671875-.921875 0-.71875.25-1.453125 1.59375-1.453125 1.140625 0 1.59375.546875 1.59375 1.578125 0 .265625-.015625.6875-.046875.796875zm0 0" transform="translate(18.28708 152.9616)"/><path d="m-3.78125-1.859375c-.421875.015625-.703125.03125-.796875.078125-.0625.03125-.09375.046875-.09375.140625.125.28125.21875.5625.3125 1.296875.0625.015625.234375 0 .296875-.03125.046875-.5625.109375-.6875.71875-.6875h2.0625c.875 0 .90625.140625.953125.78125.0625.0625.28125.0625.34375 0 0-.359375-.015625-.78125-.015625-1.203125s.015625-.90625.015625-1.265625c-.0625-.0625-.28125-.0625-.34375 0-.046875.734375-.078125.859375-.953125.859375h-1.46875c-.28125 0-.53125-.125-.71875-.25-.171875-.125-.515625-.359375-.515625-.484375 0-.09375.03125-.1875.140625-.28125.109375-.078125.234375-.203125.234375-.375 0-.25-.25-.5-.515625-.5-.203125 0-.515625.1875-.515625.640625 0 .484375.46875.921875.875 1.171875.125.0625.03125.109375-.015625.109375zm0 0" transform="translate(18.28708 147.24864)"/></g><g><path d="m-2.171875-.4375c1.078125 0 2.28125-.71875 2.28125-2.21875 0-.671875-.25-1.1875-.59375-1.546875-.46875-.46875-1.125-.6875-1.78125-.6875-1.09375 0-2.375.609375-2.375 2.21875 0 .703125.28125 1.265625.75 1.65625.453125.375 1.0625.578125 1.71875.578125zm-2.09375-2.078125c0-.90625.828125-1.46875 2.34375-1.46875 1.328125 0 1.65625.6875 1.65625 1.1875 0 1.09375-1.328125 1.453125-2.140625 1.453125-.921875 0-1.859375-.21875-1.859375-1.171875zm0 0" transform="translate(18.28708 143.4048)"/><use x="18.28708" xlink:href="#t" y="138.08256"/><path d="m-.5-3.09375c.328125-.0625.609375-.1875.609375-.703125 0-.40625-.1875-.78125-.390625-1.015625-.125.03125-.21875.0625-.296875.1875.078125.078125.171875.25.171875.390625 0 .3125-.40625.3125-.890625.3125h-1.5625c-1.5 0-1.78125.828125-1.78125 1.59375 0 .875.578125 1.75 1.171875 1.75.25 0 .390625-.125.390625-.375 0-.296875-.234375-.5-.359375-.5-.078125 0-.15625.015625-.203125.03125-.03125.015625-.09375.03125-.203125.03125-.328125 0-.4375-.453125-.4375-.84375 0-.359375.171875-.859375 1.359375-.859375.078125 0 .125.03125.140625.0625l.21875.90625c.25 1.015625.8125 1.75 1.53125 1.75.859375 0 1.140625-.59375 1.140625-1.34375 0-.359375-.09375-.671875-.453125-1.140625l-.15625-.21875zm-1.96875 0h1.40625c.140625 0 .203125.0625.265625.140625.21875.28125.46875.640625.46875.9375 0 .53125-.421875.765625-.75.765625-.46875 0-.953125-.234375-1.15625-1.015625zm0 0" transform="translate(18.28708 132.87648)"/><use x="18.28708" xlink:href="#t" y="128.05056"/><use x="18.28708" xlink:href="#u" y="122.84448"/><path d="m-1.28125-1c.875 0 .921875.109375.953125.75.0625.078125.28125.078125.34375 0 0-.359375-.015625-.75-.015625-1.171875s.015625-.828125.015625-1.171875c-.0625-.0625-.28125-.0625-.34375 0-.03125.640625-.078125.75-.953125.75h-4.875c-.6875 0-1.109375-.03125-1.109375-.03125-.078125 0-.109375.03125-.109375.125.109375.265625.25 1.0625.28125 1.484375.09375.015625.265625 0 .328125-.0625.03125-.609375.0625-.671875.859375-.671875zm0 0" transform="translate(18.28708 119.98272)"/><use x="18.28708" xlink:href="#u" y="117.19488"/><path d="m-4.53125-.453125c0 .140625.125.1875.21875.1875h.125c.0625 0 .0625-.015625.0625-.046875v-.625h3.1875c.75 0 1.046875-.328125 1.046875-.8125s-.234375-1.015625-.703125-1.421875c-.109375.015625-.171875.078125-.171875.1875.203125.265625.296875.59375.296875.859375 0 .28125-.328125.34375-.984375.34375h-2.671875v-1.09375c0-.109375-.03125-.25-.125-.25h-.21875c-.046875 0-.0625.03125-.0625.078125v1.265625h-.40625c-.6875 0-1.109375-.03125-1.109375-.03125-.0625 0-.09375.03125-.09375.078125s.03125.140625.09375.234375c.0625.109375.109375.21875.140625.359375.046875.125.078125.234375.15625.234375.125 0 .046875-.03125 1.21875-.03125zm0 0" transform="translate(18.28708 114.33312)"/><path d="m1.6875-2.15625c-.296875-.171875-.59375-.3125-.90625-.4375-2.03125-.84375-3.125-1.3125-4.3125-1.859375-.4375-.21875-.609375-.359375-.671875-.859375-.0625-.0625-.28125-.0625-.34375 0 0 .203125.015625.453125.015625.75 0 .3125-.015625.640625-.015625.953125.0625.078125.28125.078125.34375 0 .03125-.328125.09375-.671875.46875-.5l2.421875 1.046875c.171875.078125.203125.171875 0 .25l-2.203125.9375c-.4375.203125-.640625.25-.6875-.34375-.0625-.0625-.28125-.0625-.34375 0 0 .390625.015625.8125.015625 1.1875 0 .359375-.015625.65625-.015625.859375.0625.0625.28125.0625.34375 0 .046875-.421875.140625-.5625.796875-.828125l2.765625-1.203125c.21875-.09375.703125-.25 1-.140625.34375.125.640625.25.96875.40625.21875.125.3125.265625.3125.53125 0 .15625-.03125.1875-.03125.3125 0 .296875.3125.453125.453125.453125.21875 0 .390625-.203125.390625-.484375 0-.234375-.09375-.65625-.765625-1.03125zm0 0" transform="translate(18.28708 110.99616)"/></g><path d="m462.657494 198.993431v-154.550781" fill="none" stroke="#aaa" transform="translate(11.3386 11.3386)"/><path d="m462.657494 38.274681-2.125 5.667969h4.25zm0 0" fill="#aaa" stroke="#aaa" transform="translate(11.3386 11.3386)"/><g><path d="m5.53125 1.09375h-4.25c-.875 0-.921875-.171875-.953125-.921875-.0625-.0625-.28125-.0625-.34375 0 0 .484375.015625 1 .015625 1.375s-.015625 1-.015625 1.53125c.0625.0625.28125.0625.34375 0 .046875-.828125.078125-1.078125.953125-1.078125h1.796875c-.0625.234375-.09375.484375-.09375.859375 0 1.921875 1.25 2.5 2.15625 2.5.609375 0 1.75-.421875 1.75-2.375 0-.390625-.078125-1.015625-.078125-1.4375 0-.390625.015625-.9375.015625-1.375-.0625-.0625-.28125-.0625-.34375 0-.03125.75-.078125.921875-.953125.921875zm.328125.90625c.296875 0 .671875.15625.671875.921875 0 .71875-.25 1.453125-1.59375 1.453125-1.140625 0-1.59375-.546875-1.59375-1.578125 0-.265625.015625-.6875.046875-.796875zm0 0" transform="translate(487.50212 105.5579)"/><path d="m3.78125 1.859375c.421875-.015625.703125-.03125.796875-.078125.0625-.03125.09375-.046875.09375-.140625-.125-.28125-.21875-.5625-.3125-1.296875-.0625-.015625-.234375 0-.296875.03125-.046875.5625-.109375.6875-.71875.6875h-2.0625c-.875 0-.90625-.140625-.953125-.78125-.0625-.0625-.28125-.0625-.34375 0 0 .359375.015625.78125.015625 1.203125s-.015625.90625-.015625 1.265625c.0625.0625.28125.0625.34375 0 .046875-.734375.078125-.859375.953125-.859375h1.46875c.28125 0 .53125.125.71875.25.171875.125.515625.359375.515625.484375 0 .09375-.03125.1875-.140625.28125-.109375.078125-.234375.203125-.234375.375 0 .25.25.5.515625.5.203125 0 .515625-.1875.515625-.640625 0-.484375-.46875-.921875-.875-1.171875-.125-.0625-.03125-.109375.015625-.109375zm0 0" transform="translate(487.50212 111.27086)"/></g><g><path d="m2.171875.4375c-1.078125 0-2.28125.71875-2.28125 2.21875 0 .671875.25 1.1875.59375 1.546875.46875.46875 1.125.6875 1.78125.6875 1.09375 0 2.375-.609375 2.375-2.21875 0-.703125-.28125-1.265625-.75-1.65625-.453125-.375-1.0625-.578125-1.71875-.578125zm2.09375 2.078125c0 .90625-.828125 1.46875-2.34375 1.46875-1.328125 0-1.65625-.6875-1.65625-1.1875 0-1.09375 1.328125-1.453125 2.140625-1.453125.921875 0 1.859375.21875 1.859375 1.171875zm0 0" transform="translate(487.50212 115.1147)"/><use x="487.50212" xlink:href="#v" y="120.43694"/><path d="m.5 3.09375c-.328125.0625-.609375.1875-.609375.703125 0 .40625.1875.78125.390625 1.015625.125-.03125.21875-.0625.296875-.1875-.078125-.078125-.171875-.25-.171875-.390625 0-.3125.40625-.3125.890625-.3125h1.5625c1.5 0 1.78125-.828125 1.78125-1.59375 0-.875-.578125-1.75-1.171875-1.75-.25 0-.390625.125-.390625.375 0 .296875.234375.5.359375.5.078125 0 .15625-.015625.203125-.03125.03125-.015625.09375-.03125.203125-.03125.328125 0 .4375.453125.4375.84375 0 .359375-.171875.859375-1.359375.859375-.078125 0-.125-.03125-.140625-.0625l-.21875-.90625c-.25-1.015625-.8125-1.75-1.53125-1.75-.859375 0-1.140625.59375-1.140625 1.34375 0 .359375.09375.671875.453125 1.140625l.15625.21875zm1.96875 0h-1.40625c-.140625 0-.203125-.0625-.265625-.140625-.21875-.28125-.46875-.640625-.46875-.9375 0-.53125.421875-.765625.75-.765625.46875 0 .953125.234375 1.15625 1.015625zm0 0" transform="translate(487.50212 125.64302)"/><use x="487.50212" xlink:href="#v" y="130.46894"/><use x="487.50212" xlink:href="#w" y="135.67502"/><path d="m1.28125 1c-.875 0-.921875-.109375-.953125-.75-.0625-.078125-.28125-.078125-.34375 0 0 .359375.015625.75.015625 1.171875s-.015625.828125-.015625 1.171875c.0625.0625.28125.0625.34375 0 .03125-.640625.078125-.75.953125-.75h4.875c.6875 0 1.109375.03125 1.109375.03125.078125 0 .109375-.03125.109375-.125-.109375-.265625-.25-1.0625-.28125-1.484375-.09375-.015625-.265625 0-.328125.0625-.03125.609375-.0625.671875-.859375.671875zm0 0" transform="translate(487.50212 138.53678)"/><use x="487.50212" xlink:href="#w" y="141.32462"/><path d="m4.53125.453125c0-.140625-.125-.1875-.21875-.1875h-.125c-.0625 0-.0625.015625-.0625.046875v.625h-3.1875c-.75 0-1.046875.328125-1.046875.8125s.234375 1.015625.703125 1.421875c.109375-.015625.171875-.078125.171875-.1875-.203125-.265625-.296875-.59375-.296875-.859375 0-.28125.328125-.34375.984375-.34375h2.671875v1.09375c0 .109375.03125.25.125.25h.21875c.046875 0 .0625-.03125.0625-.078125v-1.265625h.40625c.6875 0 1.109375.03125 1.109375.03125.0625 0 .09375-.03125.09375-.078125s-.03125-.140625-.09375-.234375c-.0625-.109375-.109375-.21875-.140625-.359375-.046875-.125-.078125-.234375-.15625-.234375-.125 0-.046875.03125-1.21875.03125zm0 0" transform="translate(487.50212 144.18638)"/><path d="m-1.6875 2.15625c.296875.171875.59375.3125.90625.4375 2.03125.84375 3.125 1.3125 4.3125 1.859375.4375.21875.609375.359375.671875.859375.0625.0625.28125.0625.34375 0 0-.203125-.015625-.453125-.015625-.75 0-.3125.015625-.640625.015625-.953125-.0625-.078125-.28125-.078125-.34375 0-.03125.328125-.09375.671875-.46875.5l-2.421875-1.046875c-.171875-.078125-.203125-.171875 0-.25l2.203125-.9375c.4375-.203125.640625-.25.6875.34375.0625.0625.28125.0625.34375 0 0-.390625-.015625-.8125-.015625-1.1875 0-.359375.015625-.65625.015625-.859375-.0625-.0625-.28125-.0625-.34375 0-.046875.421875-.140625.5625-.796875.828125l-2.765625 1.203125c-.21875.09375-.703125.25-1 .140625-.34375-.125-.640625-.25-.96875-.40625-.21875-.125-.3125-.265625-.3125-.53125 0-.15625.03125-.1875.03125-.3125 0-.296875-.3125-.453125-.453125-.453125-.21875 0-.390625.203125-.390625.484375 0 .234375.09375.65625.765625 1.03125zm0 0" transform="translate(487.50212 147.52334)"/></g><path d="m68.360619 246.899681h154.546875" fill="none" stroke="#aaa" transform="translate(11.3386 11.3386)"/><path d="m229.075463 246.899681-5.667969-2.128906v4.253906zm0 0" fill="#aaa" stroke="#aaa" transform="translate(11.3386 11.3386)"/><g><path d="m5.875-5.40625v3.453125c0 .203125 0 .3125-.078125.3125-.046875 0-.203125-.1875-.5-.578125l-3.625-4.59375-1.421875-.015625c-.078125.0625-.078125.28125 0 .34375.453125.03125.765625.40625.828125.671875v4.40625c0 .9375-.1875 1-.921875 1.078125-.0625.0625-.0625.28125 0 .34375.453125 0 .9375-.015625 1.1875-.015625.234375 0 .71875.015625 1.171875.015625.0625-.0625.0625-.28125 0-.34375-.734375-.078125-.921875-.109375-.921875-1.078125v-3.234375c0-.359375 0-.515625.078125-.515625s.1875.125.359375.34375l3.6875 4.671875c.125.15625.265625.25.421875.25s.25-.125.25-.328125v-5.1875c0-.9375.171875-1 .921875-1.078125.0625-.0625.0625-.28125 0-.34375-.4375 0-.9375.015625-1.1875.015625-.21875 0-.703125-.015625-1.171875-.015625-.0625.0625-.0625.28125 0 .34375.734375.078125.921875.109375.921875 1.078125zm0 0" transform="translate(125.4826 276.2402)"/><use x="132.86404" xlink:href="#x" y="276.2402"/><path d="m4.6875-4.09375c.203125 0 .390625-.1875.390625-.390625 0-.21875-.203125-.390625-.484375-.390625s-.78125.171875-1.0625.53125c-.125-.078125-.46875-.296875-1.09375-.296875-.9375 0-1.796875.640625-1.796875 1.609375 0 .5625.25.890625.546875 1.1875-.296875.25-.46875.703125-.46875 1.0625 0 .375.203125.671875.484375.8125-.5625.34375-.859375.828125-.859375 1.28125 0 .921875.859375 1.203125 1.671875 1.203125 1.421875 0 2.96875-.6875 2.96875-1.828125 0-.34375-.15625-.609375-.46875-.859375-.40625-.328125-1.140625-.34375-1.53125-.34375-.203125 0-.453125.015625-.71875.046875-.15625.015625-.265625.03125-.3125.03125-.3125 0-.671875-.15625-.671875-.609375 0-.203125.0625-.4375.1875-.609375.25.140625.546875.21875.953125.21875.9375 0 1.796875-.578125 1.796875-1.609375 0-.5-.15625-.78125-.453125-1.109375.0625-.09375.28125-.25.421875-.25.0625 0 .140625.03125.203125.125.046875.09375.1875.1875.296875.1875zm-3.296875 4.203125c.125.03125.28125.046875.421875.046875.328125 0 .625-.03125.78125-.03125.515625 0 .96875.015625 1.265625.1875.421875.21875.546875.375.546875.65625 0 .75-1.125 1.15625-2.078125 1.15625-.375 0-1.265625-.3125-1.265625-1.03125 0-.359375.03125-.625.328125-.984375zm1.984375-3.0625c0 .984375-.5 1.1875-.890625 1.1875-.890625 0-.984375-.75-.984375-1.421875 0-.734375.265625-1.125.84375-1.125.671875 0 1.03125.484375 1.03125 1.359375zm0 0" transform="translate(137.58436 276.2402)"/><use x="142.86436" xlink:href="#y" y="276.2402"/><use x="147.69028" xlink:href="#z" y="276.2402"/><use x="151.02724" xlink:href="#A" y="276.2402"/><use x="153.889" xlink:href="#B" y="276.2402"/></g><g><use x="159.05284" xlink:href="#x" y="276.2402"/><use x="166.41316" xlink:href="#C" y="276.2402"/><use x="169.54948" xlink:href="#D" y="276.2402"/><use x="177.89188" xlink:href="#E" y="276.2402"/><use x="183.37252" xlink:href="#y" y="276.2402"/><use x="188.19844" xlink:href="#F" y="276.2402"/><use x="192.71812" xlink:href="#z" y="276.2402"/></g><path d="m414.751244 246.899681h-154.546875" fill="none" stroke="#aaa" transform="translate(11.3386 11.3386)"/><path d="m254.0364 246.899681 5.667969 2.125v-4.253906zm0 0" fill="#aaa" stroke="#aaa" transform="translate(11.3386 11.3386)"/><g><path d="m1.09375-5.53125v4.25c0 .875-.171875.921875-.921875.953125-.0625.0625-.0625.28125 0 .34375.484375 0 1-.015625 1.375-.015625s1 .015625 1.53125.015625c.0625-.0625.0625-.28125 0-.34375-.828125-.046875-1.078125-.078125-1.078125-.953125v-1.796875c.234375.0625.484375.09375.859375.09375 1.921875 0 2.5-1.25 2.5-2.15625 0-.609375-.421875-1.75-2.375-1.75-.390625 0-1.015625.078125-1.4375.078125-.390625 0-.9375-.015625-1.375-.015625-.0625.0625-.0625.28125 0 .34375.75.03125.921875.078125.921875.953125zm.90625-.328125c0-.296875.15625-.671875.921875-.671875.71875 0 1.453125.25 1.453125 1.59375 0 1.140625-.546875 1.59375-1.578125 1.59375-.265625 0-.6875-.015625-.796875-.046875zm0 0" transform="translate(311.8306 276.2402)"/><path d="m.4375-2.171875c0 1.078125.71875 2.28125 2.21875 2.28125.671875 0 1.1875-.25 1.546875-.59375.46875-.46875.6875-1.125.6875-1.78125 0-1.09375-.609375-2.375-2.21875-2.375-.703125 0-1.265625.28125-1.65625.75-.375.453125-.578125 1.0625-.578125 1.71875zm2.078125-2.09375c.90625 0 1.46875.828125 1.46875 2.34375 0 1.328125-.6875 1.65625-1.1875 1.65625-1.09375 0-1.453125-1.328125-1.453125-2.140625 0-.921875.21875-1.859375 1.171875-1.859375zm0 0" transform="translate(317.54356 276.2402)"/><path d="m.5-1.453125c.046875.515625.078125 1.015625.078125 1.453125.109375-.015625.21875-.03125.265625-.03125.078125 0 .140625 0 .21875.015625.28125.078125.5625.125.953125.125.59375 0 1.6875-.28125 1.6875-1.328125 0-.71875-.53125-1.140625-1.234375-1.40625-.640625-.25-1.0625-.40625-1.0625-.984375 0-.4375.375-.671875.734375-.671875.234375 0 .84375.078125.984375.96875.0625.0625.28125.0625.34375 0 .03125-.390625.046875-.78125.0625-1.125-.328125-.046875-.84375-.203125-1.390625-.203125-.78125 0-1.484375.515625-1.484375 1.1875 0 .765625.34375 1.09375 1.15625 1.4375.875.359375 1.078125.578125 1.078125 1.03125 0 .515625-.5.734375-.890625.734375-.421875 0-.640625-.125-.75-.25-.234375-.234375-.359375-.703125-.421875-.96875-.0625-.0625-.25-.046875-.328125.015625zm0 0" transform="translate(322.8658 276.2402)"/><use x="326.9842" xlink:href="#A" y="276.2402"/><use x="329.84596" xlink:href="#z" y="276.2402"/><use x="333.18292" xlink:href="#A" y="276.2402"/><use x="336.04468" xlink:href="#B" y="276.2402"/></g><g><use x="341.20852" xlink:href="#x" y="276.2402"/><use x="348.56884" xlink:href="#C" y="276.2402"/><use x="351.70516" xlink:href="#D" y="276.2402"/><use x="360.04756" xlink:href="#E" y="276.2402"/><use x="365.5282" xlink:href="#y" y="276.2402"/><use x="370.35412" xlink:href="#F" y="276.2402"/><use x="374.8738" xlink:href="#z" y="276.2402"/></g><path d="m241.555931 173.196556-173.195312-173.19531225h346.390625zm0 0" fill="#aaa" fill-opacity=".2" stroke="#aaa" transform="translate(11.3386 11.3386)"/><g><use x="193.5186" xlink:href="#G" y="29.15808"/><use x="203.9158" xlink:href="#H" y="29.15808"/><use x="209.48092" xlink:href="#H" y="29.15808"/></g><use x="214.92636" xlink:href="#I" y="29.15808"/><g><path d="m3.03125-5.953125c.09375-.09375.09375-.40625 0-.484375-.4375 0-.96875.015625-1.5.015625-.578125 0-.984375-.015625-1.359375-.015625-.09375.078125-.09375.390625 0 .484375.703125.078125.859375.21875 1.171875 1l1.953125 4.828125c.09375.21875.21875.296875.359375.296875s.265625-.078125.359375-.328125l1.515625-3.671875 1.546875 3.703125c.078125.21875.203125.296875.359375.296875.125 0 .25-.078125.34375-.3125l1.953125-4.734375c.234375-.609375.5-1.03125 1.25-1.078125.09375-.09375.09375-.40625 0-.484375-.296875 0-.625.015625-1.078125.015625-.4375 0-1.0625-.015625-1.515625-.015625-.09375.078125-.09375.390625 0 .484375 1.125.0625.96875.5.765625 1.015625l-1.265625 3.109375c-.140625.375-.203125.375-.328125.0625l-1.28125-3.28125c-.28125-.6875-.25-.84375.53125-.90625.09375-.09375.09375-.40625 0-.484375-.4375 0-1.046875.015625-1.484375.015625-.375 0-.875-.015625-1.328125-.015625-.078125.078125-.078125.390625 0 .484375.703125.0625.890625.5 1.15625 1.171875l.09375.234375-1.046875 2.640625c-.203125.5-.21875.515625-.421875.03125l-1.1875-3.078125c-.296875-.71875-.28125-.953125.4375-1zm0 0" transform="translate(222.36148 29.15808)"/><use x="237.2766" xlink:href="#I" y="29.15808"/><path d="m2.609375-1.828125v-4h1.390625c.140625 0 .34375-.0625.34375-.203125v-.296875c0-.0625-.03125-.09375-.109375-.09375h-1.625v-.84375c0-2.296875.6875-2.65625 1.1875-2.65625.453125 0 .6875.171875.890625.703125.125.265625.296875.46875.609375.46875.25 0 .609375-.3125.609375-.609375 0-.25-.171875-.53125-.484375-.765625-.375-.265625-.765625-.3125-1.34375-.3125-1.25 0-2.640625 1.09375-2.640625 3.421875v.59375h-.765625c-.265625 0-.34375.1875-.34375.3125v.1875c0 .078125.015625.09375.078125.09375h1.03125v4c0 1.25-.234375 1.3125-1.046875 1.359375-.09375.09375-.09375.40625 0 .5.515625-.015625 1.046875-.03125 1.640625-.03125s1.3125.015625 1.84375.03125c.09375-.09375.09375-.40625 0-.5-1.171875-.046875-1.265625-.109375-1.265625-1.359375zm0 0" transform="translate(244.81644 29.15808)"/><use x="253.19404" xlink:href="#G" y="29.15808"/><use x="263.59124" xlink:href="#J" y="29.15808"/><use x="268.3186" xlink:href="#J" y="29.15808"/><path d="m5.765625-1.390625c-.546875.5625-.984375.8125-1.84375.8125-.546875 0-1.171875-.3125-1.640625-1.078125-.296875-.5-.46875-1.1875-.46875-2.046875l3.96875.03125c.1875 0 .296875-.09375.296875-.265625 0-1.25-.453125-2.59375-2.53125-2.59375-1.296875 0-3 1.234375-3 3.515625 0 .828125.21875 1.640625.703125 2.203125.515625.609375 1.21875.96875 2.296875.96875 1.140625 0 1.9375-.53125 2.53125-1.3125-.03125-.140625-.125-.21875-.3125-.234375zm-3.90625-2.828125c.28125-1.6875 1.328125-1.828125 1.6875-1.828125.5625 0 1.234375.3125 1.234375 1.578125 0 .125-.0625.203125-.21875.203125zm0 0" transform="translate(273.04596 29.15808)"/><use x="279.73308" xlink:href="#K" y="29.15808"/><use x="287.8414" xlink:href="#J" y="29.15808"/><path d="m2.703125-1.828125v-2.96875c0-.75.0625-1.703125.0625-1.703125 0-.0625-.078125-.109375-.1875-.109375-.421875.171875-1.015625.296875-2.0625.4375-.015625.09375 0 .328125.03125.421875.828125.0625.984375.15625.984375 1.015625v2.90625c0 1.25-.171875 1.296875-1.078125 1.359375-.09375.09375-.09375.40625 0 .5.484375-.015625 1.078125-.03125 1.671875-.03125s1.171875.015625 1.65625.03125c.09375-.09375.09375-.40625 0-.5-.90625-.046875-1.078125-.109375-1.078125-1.359375zm-1.359375-7.125c0 .390625.359375.78125.71875.78125.421875 0 .78125-.40625.78125-.71875 0-.359375-.3125-.78125-.71875-.78125-.359375 0-.78125.359375-.78125.71875zm0 0" transform="translate(292.56876 29.15808)"/><use x="296.62292" xlink:href="#I" y="29.15808"/><use x="304.16276" xlink:href="#K" y="29.15808"/></g></svg>